<svg xmlns="http://www.w3.org/2000/svg" width="56" height="56" viewBox="0 0 56 56">
  <g id="Group_134549" data-name="Group 134549" transform="translate(-124 -1945.822)">
    <rect id="Rectangle_21016" data-name="Rectangle 21016" width="56" height="56" rx="15" transform="translate(124 1945.822)" fill="#f2e2cd"/>
    <g id="arm-wrestling" transform="translate(134.681 1957.936)">
      <path id="Path_99365" data-name="Path 99365" d="M77.584,137.017a1.449,1.449,0,1,0,2.049-2.05l-3.94-3.939a1.449,1.449,0,0,0-2.049,2.049Z" transform="translate(-68.206 -123.531)" fill="#f99d27"/>
      <path id="Path_99366" data-name="Path 99366" d="M29.116,190.881a1.449,1.449,0,0,0,2.049-2.05l-3.743-3.743a1.449,1.449,0,0,0-2.048,2.05Z" transform="translate(-23.243 -173.89)" fill="#f99d27"/>
      <path id="Path_99367" data-name="Path 99367" d="M179.147,33.938a1.449,1.449,0,1,0,2.049-2.05L177.2,27.894a1.449,1.449,0,1,0-2.049,2.049Z" transform="translate(-162.76 -27.462)" fill="#f99d27"/>
      <path id="Path_99368" data-name="Path 99368" d="M128.012,85.11a1.449,1.449,0,0,0,2.049-2.049l-3.994-3.995a1.449,1.449,0,0,0-2.049,2.049Z" transform="translate(-115.129 -75.129)" fill="#f99d27"/>
      <path id="Path_99369" data-name="Path 99369" d="M33.426,40.074a1.449,1.449,0,0,0-2.052-2.046,1.029,1.029,0,1,1-1.456-1.456h0A1.446,1.446,0,0,0,28.893,34.1a1.427,1.427,0,0,0-1.025.422,1.029,1.029,0,0,1-1.456-1.456,1.449,1.449,0,1,0-2.049-2.049l-.238.238A1.029,1.029,0,1,1,22.672,29.8,1.449,1.449,0,0,0,20.62,27.75l-1.639,1.634.912.912a3.5,3.5,0,0,1-2.481,5.985,3.5,3.5,0,0,1-3.5,3.505A3.5,3.5,0,0,1,10.4,43.292a3.509,3.509,0,0,1-5.987,2.481l-.934-.934L.32,47.994a1.1,1.1,0,0,0,0,1.549l8.831,8.773a1.106,1.106,0,0,0,1.555,0L14.32,54.7a6.81,6.81,0,0,1,3.689-1.731A8.868,8.868,0,0,0,23,50.364c2.573-2.573,7.832-7.741,10.43-10.291Z" transform="translate(0 -27.326)" fill="#f99d27"/>
      <path id="Path_99370" data-name="Path 99370" d="M312.735,285.768l-3.215-3.207c-2.328,2.29-5.325,5.244-7.09,7.009a10.551,10.551,0,0,1-4.007,2.614c.232.2-.02-.041,3.925,3.9a1.106,1.106,0,0,0,1.555,0l8.831-8.773A1.1,1.1,0,0,0,312.735,285.768Z" transform="translate(-277.979 -265.076)" fill="#f99d27"/>
    </g>
  </g>
</svg>
