<svg xmlns="http://www.w3.org/2000/svg" width="56" height="56" viewBox="0 0 56 56">
  <g id="Group_134550" data-name="Group 134550" transform="translate(-124 -1945.382)">
    <path id="Path_99373" data-name="Path 99373" d="M12.537,0H43.463A12.537,12.537,0,0,1,56,12.537V43.463A12.537,12.537,0,0,1,43.463,56H12.537A12.537,12.537,0,0,1,0,43.463V12.537A12.537,12.537,0,0,1,12.537,0Z" transform="translate(124 1945.382)" fill="#f2e2cd"/>
    <g id="happy" transform="translate(137.572 1958.954)">
      <g id="Group_134554" data-name="Group 134554" transform="translate(0 0)">
        <g id="Group_134553" data-name="Group 134553">
          <path id="Path_99372" data-name="Path 99372" d="M24.63,4.226a14.428,14.428,0,1,0-20.4,20.4,14.428,14.428,0,1,0,20.4-20.4Zm-7.081,6.392a3.611,3.611,0,0,1,5.1,0,.859.859,0,1,1-1.214,1.215,1.891,1.891,0,0,0-2.672,0,.859.859,0,0,1-1.215-1.215Zm-11.343,0a3.611,3.611,0,0,1,5.1,0,.859.859,0,1,1-1.214,1.215,1.892,1.892,0,0,0-2.672,0,.859.859,0,0,1-1.215-1.215Zm8.222,12.208c-2.94,0-5.365-1.331-6.775-5.077a.859.859,0,0,1,.859-.859H20.345a.859.859,0,0,1,.859.859C19.989,21.388,17.563,22.826,14.428,22.826Z" transform="translate(0 0)" fill="#f99d27"/>
        </g>
      </g>
    </g>
  </g>
</svg>
