<svg xmlns="http://www.w3.org/2000/svg" xmlns:xlink="http://www.w3.org/1999/xlink" width="552" height="569" viewBox="0 0 552 569">
  <defs>
    <clipPath id="clip-path">
      <rect id="Rectangle_21015" data-name="Rectangle 21015" width="552" height="569" transform="translate(139 1257.381)" fill="#fff" stroke="#707070" stroke-width="1"/>
    </clipPath>
    <clipPath id="clip-path-2">
      <rect id="Rectangle_20327" data-name="Rectangle 20327" width="704.869" height="643.499" fill="none"/>
    </clipPath>
    <clipPath id="clip-path-3">
      <rect id="Rectangle_20308" data-name="Rectangle 20308" width="585.543" height="610.626" fill="none"/>
    </clipPath>
    <clipPath id="clip-path-4">
      <rect id="Rectangle_20300" data-name="Rectangle 20300" width="9.375" height="5.931" fill="none"/>
    </clipPath>
    <clipPath id="clip-path-5">
      <rect id="Rectangle_20301" data-name="Rectangle 20301" width="0.136" height="5.088" fill="none"/>
    </clipPath>
    <clipPath id="clip-path-6">
      <rect id="Rectangle_20318" data-name="Rectangle 20318" width="520.228" height="542.513" fill="none"/>
    </clipPath>
    <clipPath id="clip-path-7">
      <rect id="Rectangle_20310" data-name="Rectangle 20310" width="64.548" height="48.124" fill="none"/>
    </clipPath>
    <clipPath id="clip-path-8">
      <rect id="Rectangle_20311" data-name="Rectangle 20311" width="34.833" height="47.218" fill="none"/>
    </clipPath>
    <clipPath id="clip-path-9">
      <rect id="Rectangle_20312" data-name="Rectangle 20312" width="66.527" height="41.25" fill="none"/>
    </clipPath>
    <clipPath id="clip-path-10">
      <rect id="Rectangle_20313" data-name="Rectangle 20313" width="40.955" height="38.041" fill="none"/>
    </clipPath>
    <clipPath id="clip-path-11">
      <rect id="Rectangle_20314" data-name="Rectangle 20314" width="65.992" height="43.818" fill="none"/>
    </clipPath>
    <clipPath id="clip-path-12">
      <rect id="Rectangle_20315" data-name="Rectangle 20315" width="38.545" height="44.727" fill="none"/>
    </clipPath>
    <clipPath id="clip-path-15">
      <rect id="Rectangle_20325" data-name="Rectangle 20325" width="10.116" height="43.338" fill="none"/>
    </clipPath>
  </defs>
  <g id="Group_134564" data-name="Group 134564" transform="translate(-139 -1308)">
    <g id="Mask_Group_121176" data-name="Mask Group 121176" transform="translate(0 50.619)" clip-path="url(#clip-path)">
      <g id="Group_130963" data-name="Group 130963" transform="translate(139 1256.477)">
        <g id="Group_130962" data-name="Group 130962" transform="translate(0 0)" clip-path="url(#clip-path-2)">
          <g id="Group_130920" data-name="Group 130920" transform="translate(152.755 24.639)">
            <g id="Group_130919" data-name="Group 130919" clip-path="url(#clip-path-3)">
              <path id="Path_89628" data-name="Path 89628" d="M102.493,324.045a44.856,44.856,0,1,1-58.376-24.635,44.808,44.808,0,0,1,58.376,24.635" transform="translate(4.931 90.883)" fill="#fafafa"/>
              <path id="Path_89629" data-name="Path 89629" d="M90.095,325.55a34.183,34.183,0,1,1-44.488-18.774A34.144,34.144,0,0,1,90.095,325.55" transform="translate(7.437 93.385)" fill="#fafafa"/>
              <path id="Path_89630" data-name="Path 89630" d="M90.177,325.611a3.213,3.213,0,0,1-.267-.488c-.178-.359-.414-.842-.718-1.457l-.519-1.076c-.21-.385-.476-.788-.742-1.235a24.871,24.871,0,0,0-1.99-2.986,32.537,32.537,0,0,0-6.916-6.936,33.934,33.934,0,0,0-43.118,1.934,35.107,35.107,0,0,0-3.361,3.449c-.519.625-.983,1.3-1.481,1.954a16.98,16.98,0,0,0-1.366,2.068,30.934,30.934,0,0,0-3.94,9.327,32.637,32.637,0,0,0-1,10.44,33.391,33.391,0,0,0,8,19.761,32.625,32.625,0,0,0,7.981,6.806,38.193,38.193,0,0,0,4.544,2.382,38.009,38.009,0,0,0,4.779,1.575,31.25,31.25,0,0,0,9.659,1.044,34.094,34.094,0,0,0,17.025-5.3,34.1,34.1,0,0,0,15.282-23.326,32.491,32.491,0,0,0,.139-9.794,24.6,24.6,0,0,0-.65-3.528c-.119-.507-.209-.98-.327-1.4q-.206-.622-.375-1.133c-.212-.652-.376-1.165-.5-1.545a3.234,3.234,0,0,1-.148-.536,2.955,2.955,0,0,1,.216.51c.14.376.328.881.567,1.525q.186.51.41,1.129c.131.421.231.894.363,1.4a24.231,24.231,0,0,1,.719,3.543,32.232,32.232,0,0,1-.02,9.894,34.4,34.4,0,0,1-15.358,23.765,34.6,34.6,0,0,1-17.321,5.456,35.741,35.741,0,0,1-4.911-.128,35.827,35.827,0,0,1-4.943-.912,38.553,38.553,0,0,1-4.879-1.6,38.5,38.5,0,0,1-4.642-2.423,33.3,33.3,0,0,1-8.157-6.941,34.02,34.02,0,0,1-8.171-20.18,33.234,33.234,0,0,1,1.026-10.658,31.577,31.577,0,0,1,4.037-9.512,17.566,17.566,0,0,1,1.4-2.105c.51-.665.984-1.354,1.516-1.989a35.637,35.637,0,0,1,3.436-3.509A34.612,34.612,0,0,1,51.7,304.738a34.418,34.418,0,0,1,27.57,6.375,32.219,32.219,0,0,1,6.9,7.092,24.1,24.1,0,0,1,1.95,3.044c.259.456.516.867.716,1.26l.49,1.1c.277.629.494,1.123.655,1.49a3.064,3.064,0,0,1,.2.517" transform="translate(7.355 93.324)" fill="#f5f5f5"/>
              <path id="Path_89631" data-name="Path 89631" d="M89.979,325.962c-.188.083-.885-1.252-2.373-3.474a36.459,36.459,0,0,0-7.553-8.244,34.962,34.962,0,0,0-6.485-4.075,33.962,33.962,0,0,0-8.294-2.728,32.918,32.918,0,0,0-9.584-.416,32.618,32.618,0,0,0-4.991.91,32.718,32.718,0,0,0-9.526,4.214,32.9,32.9,0,0,0-4.033,3.083A33.028,33.028,0,0,0,31,322.606a33.975,33.975,0,0,0-3.563,7.976,35.062,35.062,0,0,0-1.354,7.544A36.558,36.558,0,0,0,27.1,349.262c.642,2.6,1.161,4.012.971,4.093-.137.064-.974-1.217-1.938-3.8a31.856,31.856,0,0,1-1.882-11.514,34.209,34.209,0,0,1,4.7-16.681,34.352,34.352,0,0,1,6.488-8.033,34.22,34.22,0,0,1,4.327-3.36,34.349,34.349,0,0,1,10.276-4.545,34.138,34.138,0,0,1,5.394-.943,34.342,34.342,0,0,1,10.3.6,34.151,34.151,0,0,1,15.491,7.746,31.893,31.893,0,0,1,7.248,9.141c1.262,2.453,1.645,3.934,1.506,3.994" transform="translate(7.44 93.406)" fill="#f5f5f5"/>
              <path id="Path_89632" data-name="Path 89632" d="M59.4,337.418c8.309-3.487,11.723-9.985,8.82-16.9-2.92-6.961-9.947-9.077-18.256-5.59l-13.92,5.841,6.635,15.815-2.686,1.126,2.686,6.4,2.687-1.127,1.681,4.007-2.475,1.039,2.687,6.4,2.619-1.1,3.309,7.887,8.232-3.454L58.1,349.88l11.327-4.752-2.687-6.4-11.088,4.653-1.567-3.735ZM47.5,323.94l4.786-2.008c3.567-1.5,6.043-.592,7.23,2.235,1.168,2.785.078,5.186-3.49,6.682l-4.785,2.009Z" transform="translate(11.062 96.152)" fill="#f5f5f5"/>
              <path id="Path_89638" data-name="Path 89638" d="M463.294,255.7c-2.1-4.748-2.577-10.006-3.969-14.992-.746-2.68-2-5.53-4.51-6.718-1.662-.779-3.631-.677-5.393-1.221-6.344-1.9-8.073-10.752-14.077-13.5a20.436,20.436,0,0,0-6.038-1.255c-8.038-.949-16.35-3.731-21.4-10.04-1.662-2.035-2.917-4.444-4.952-6.106-2.069-1.662-5.258-2.375-7.259-.678,1.7,3.393,3.357,6.784,5.02,10.143,1.527,3.052,3.087,6.207,5.63,8.445,2.578,2.273,6.378,3.459,9.463,2.035,1.018-.474,2.036-1.255,3.189-1.119a3.45,3.45,0,0,1,2.07,1.323c4.374,4.85,2.951,12.889-1.324,17.842-4.24,4.918-10.549,7.5-16.62,9.9-2.171.848-4.478,1.73-6.784,1.323-4.206-.78-6.444-5.358-7.666-9.463-2.747-9.091-4.07-18.961-9.7-26.627-1.8-2.409-4.036-4.612-5.121-7.427-1.154-3.053-.883-6.616-2.714-9.295-1.9-2.815-5.936-4.444-6.207-7.835-.17-2.375,1.8-4.478,3.968-5.5,2.171-1.051,4.613-1.357,6.852-2.273.882-.373,1.865-1.017,1.9-1.967,0-1.425-1.967-2-2.475-3.324-.543-1.494.983-2.884,1.627-4.343,1.392-3.324-2.069-6.682-5.427-8.039-3.325-1.357-7.36-2.341-8.921-5.6a19.346,19.346,0,0,1-1.085-4.851c-.78-4.1-3.8-8.073-7.938-8.751-4.173-.678-8.785,3.019-8.107,7.158.408,2.273,2.1,4.036,3.019,6.139.95,2.1.678,5.224-1.493,5.9-3.561,1.086-6.988-5.426-9.972-3.189,1.221,4.173,2.407,8.345,3.629,12.552-4.681,2.373-10.278-1.934-12.28-6.818-2-4.851-2.069-10.414-4.444-15.095-2.373-4.714-8.785-8.208-12.855-4.884-.2,6.038,7.768,8.479,11.3,13.365,2.543,3.527,2.171,9.26-1.595,11.5-3.731,2.239-9.667-1.662-8.243-5.766.508-1.425,1.7-2.613,1.831-4.138.136-1.9-1.458-3.427-2.916-4.647-2.274-1.934-4.547-3.833-6.818-5.733a14.319,14.319,0,0,0-4.851-3.052c-4.68-1.357-9.362,2.441-11.838,6.614-2.475,4.206-3.866,9.124-7.293,12.618-4.918,5.088-14.245,5.392-18.859.067-4.647-5.324-2.273-15.3,4.544-17.23,2.579-.712,5.835-.644,7.192-2.917,2.373-4.037-4.41-9.193-2.069-13.263,1.8-3.121,6.546-1.7,10.006-2.747,3.425-1.052,5.36-4.511,7.395-7.5,2-2.951,5.156-5.936,8.683-5.156-.271-2.07-.542-4.308.374-6.174.915-1.9,3.493-3.121,5.189-1.9-1.729,2.849.34,6.817,3.359,8.241s6.546,1.086,9.871.714c3.323-.408,7.5-1.628,7.767-4.953.1-1.085-.3-2.237.1-3.256,1.459-3.969,8.785,1.492,11.6-1.7,1.627-1.662-.17-4.613-2.444-5.156-2.237-.576-4.578.272-6.885.34-2.307.1-5.122-1.12-5.224-3.427-.1-2.273,2.443-3.9,2.713-6.139.442-3.8-6-4.783-8.275-1.7-2.239,3.087-1.46,7.327-.78,11.092.712,3.765,1.051,8.209-1.73,10.854-1.187,1.8-4.274.848-5.292-1.051-1.052-1.9-.814-4.207-.984-6.344-.169-2.171-1.119-4.613-3.222-5.19-1.459-.406-3.019.306-4.512.508-5.9.712-10.006-6.919-8.141-12.549,1.832-5.666,7.191-9.295,12.381-12.178,3.8-2.1,8.513-4.071,12.28-1.933,1.763.983,2.985,2.679,4.714,3.7,2.985,1.763,6.682,1.119,10.109,1.187a23.543,23.543,0,0,1,14.754,5.733c1.528,1.389,2.952,3.7,1.764,5.358-1.289,1.764-4.986,2.137-4.342,4.206a7.354,7.354,0,0,0,9.227-5.936,6.173,6.173,0,0,1,3.561,5.02c4.308-4.376,12.585-3.73,16.112,1.324.949,1.323,1.629,2.917,2.985,3.833,1.357.881,3.73.44,3.9-1.154a3.239,3.239,0,0,0-.271-1.492c-.814-2.307-1.662-4.578-2.477-6.852,3.155-1.7,6.886.95,9.023,3.8,7.937,10.617,13.6,4.24,24.8,5.97,7.564,1.154,10.889,6,15.163,11.872,13.093,18.045,30.393,32.835,42.3,51.694,1.253,1.967,2.407,3.968,3.492,6-.2-.508-.372-1.017-.576-1.525a208.928,208.928,0,0,0-17.3-35.175q-2.188-3.562-4.477-7.022c-.95-1.425-1.934-2.883-2.917-4.274-1.255-1.832-2.579-3.6-3.9-5.36-1.052-1.425-2.1-2.815-3.189-4.172-.745-.95-1.525-1.9-2.305-2.849-.814-1.086-1.7-2.138-2.647-3.189l-2.849-3.291a12.37,12.37,0,0,0-.916-1.017c-.983-1.154-2.035-2.273-3.086-3.393a.971.971,0,0,0-.306-.338c-.271-.306-.576-.61-.882-.916-.848-.95-1.763-1.865-2.645-2.781-1.458-1.492-2.952-2.985-4.477-4.41-1.256-1.255-2.545-2.443-3.867-3.629-1.153-1.052-2.307-2.1-3.493-3.121-1.154-1.018-2.307-2-3.494-2.985-1.426-1.221-2.883-2.409-4.377-3.6h-.034q-6.156-4.936-12.685-9.328c-1.086-.746-2.137-1.459-3.223-2.171-1.085-.748-2.2-1.426-3.289-2.1-1.12-.678-2.2-1.391-3.325-2.035-1.12-.712-2.239-1.357-3.357-2-.916-.542-1.8-1.052-2.714-1.526a14.151,14.151,0,0,0-1.391-.78c-1.933-1.086-3.9-2.137-5.868-3.121-.983-.508-1.967-1.017-2.985-1.493-1.255-.644-2.543-1.255-3.833-1.831a2.964,2.964,0,0,0-.576-.272c-1.153-.542-2.307-1.085-3.493-1.594-1.662-.712-3.325-1.425-4.987-2.1-1.9-.78-3.8-1.56-5.732-2.273-2.137-.813-4.274-1.594-6.444-2.307-2.171-.746-4.376-1.459-6.58-2.137s-4.41-1.289-6.648-1.9c-4.408-1.188-8.887-2.239-13.4-3.155-.068-.034-.17-.034-.237-.068-1.73-.339-3.461-.678-5.19-.949a1.494,1.494,0,0,0-.34-.068c-.746-.136-1.526-.272-2.307-.374-3.223-.542-6.478-.983-9.769-1.357-.372-.068-.779-.1-1.187-.136-.95-.136-1.9-.2-2.883-.3-2.171-.2-4.342-.374-6.546-.51-2.273-.169-4.579-.271-6.886-.338-2.409-.1-4.816-.136-7.225-.136-6.376,0-12.686.271-18.927.848-1.493.1-2.951.237-4.41.406-1.527.17-3.053.34-4.579.544s-3.053.406-4.545.644c-1.527.237-3.019.474-4.546.746-1.289.2-2.611.44-3.9.712q-4.783.916-9.463,2.035-2.19.508-4.377,1.119c-1.457.374-2.917.78-4.342,1.188-2.409.678-4.748,1.425-7.089,2.171H203.3c-1.9.644-3.833,1.289-5.7,1.933a.258.258,0,0,0-.136.068c-1.934.678-3.8,1.391-5.7,2.137l-.306.1c-1.73.678-3.459,1.391-5.156,2.1-2.137.882-4.24,1.832-6.31,2.781-1.763.814-3.493,1.628-5.188,2.477-1.832.916-3.663,1.832-5.462,2.781l-.2.1c-1.73.916-3.459,1.866-5.155,2.849-1.764.984-3.495,2-5.225,3.087h-.034c-1.627.984-3.222,1.967-4.816,2.985-.61.374-1.187.78-1.8,1.187-1.7,1.086-3.325,2.2-4.987,3.359-2.035,1.391-4,2.849-5.97,4.308-1.73,1.289-3.425,2.611-5.088,3.935a213.37,213.37,0,0,0-26.66,25.269c-2.884,3.189-5.6,6.446-8.243,9.769-2.24,2.849-4.41,5.733-6.48,8.717q-2.8,3.893-5.4,7.929,2.6-4.033,5.4-7.929c.544-.067,1.086-.136,1.628-.17,3.053-.237,6.276-.135,9.023-1.457,2.545-1.256,4.342-3.529,6.648-5.156,5.9-4.207,15.569-4.987,17.164-12.042.542-2.375-.1-4.952.779-7.225,1.662-4.241,7.327-4.851,11.873-4.783,1.933,0,4.2.272,5.088,1.967.644,1.187.271,2.681-.2,3.935a36.878,36.878,0,0,1-15.569,19.131c-5.9,3.6-13.6,6.378-15.23,13.093.814,2.273,4.952,2.1,5.29,4.478.238,1.9-2.2,2.883-3.086,4.579-1.29,2.477,1.661,5.5,4.477,5.36s5.156-2.171,7.225-4.071c6.173-5.732,12.652-11.906,14.891-20.046.95-3.359,1.289-7.294,4-9.533,3.223-2.645,8.989-.813,10.074,3.223,2.68-1.492,6.852-2.611,8.243.17a14.265,14.265,0,0,1,.576,3.189c.882,4.342,6.818,6.308,7.429,10.684.714,5.054-5.766,7.666-10.82,8.447-4.579.711-9.158,1.423-13.737,2.171a12.7,12.7,0,0,0-5.7,1.831c-1.628,1.221-2.645,3.527-1.7,5.326a13.442,13.442,0,0,0,2.375,2.443c3.8,3.8.677,11.634-4.681,11.8-1.832.068-3.631-.61-5.462-.678-5.426-.238-9.735,4.544-12.313,9.328s-4.512,10.244-8.853,13.5c-6.988,5.256-19.029,4.036-22.422,12.109-1.357,3.256-.644,6.92-.1,10.414.544,3.459.78,7.327-1.255,10.21-2,2.849-7.225,3.46-8.717.272a7.829,7.829,0,0,1-.2-4.512c.813-5.02,1.593-10.04,2.373-15.06.576-3.733,1.086-7.9-1.119-10.957-3.087-4.274-10.007-3.867-14.01-.44-3.968,3.425-5.63,8.785-6.749,13.907-.814,3.8-1.764,9.158-3.867,13.5h0c-.712,4.206-1.289,8.479-1.73,12.787-.44,4.41-.746,8.785-.915,13.263a18.57,18.57,0,0,0,1.729-1.627c2.137-2.206,6.446-11.534,10.312-6.954a3.46,3.46,0,0,1,.068,4.24c-1.187,1.526-3.561,1.866-4.478,3.527-1.119,1.968.442,4.41,2.273,5.7,1.832,1.324,4.07,2.138,5.36,4,2.477,3.561.1,8.955,2.511,12.584,2.068,3.121,6.478,3.324,10.242,3.731.442.068.85.136,1.29.2,1.052-7.462,4.545-13.535,14.721-15.841,14.043-3.188,32.5,8.447,40.4,19.03,8.819,11.838,12.992,28.594,26.491,34.53,9.667,4.24,23.4,2.713,28.12,12.177,4.206,8.481-3.12,18.012-4.24,27.408-.712,6.208,1.323,12.381,1.8,18.587.442,6.242-1.391,13.5-7.055,16.113-3.155,1.425-7.124,1.255-9.667,3.629-4.511,4.274-.814,13.093-5.326,17.366-1.594,1.492-3.8,2.036-5.732,3.019-10.142,5.123-9.871,20.047-5.156,30.392.17.374.34.712.508,1.085A214.313,214.313,0,0,0,269.51,461.158a213.3,213.3,0,0,0,100.572-25.033h.034a214.5,214.5,0,0,0,18.962-11.43A211.461,211.461,0,0,0,415.7,403.529a207.748,207.748,0,0,0,16.282-16.994c3.6-4.139,6.988-8.447,10.245-12.856,1.661-2.273,3.29-4.546,4.816-6.886a210.521,210.521,0,0,0,26.661-54.848,208.345,208.345,0,0,0,8.175-36.329c.644-4.817,1.153-9.7,1.493-14.619a12.331,12.331,0,0,1-8.615,3.832c-5.156-.067-9.4-4.374-11.466-9.124" transform="translate(17.006 9.989)" fill="#f5f5f5"/>
              <path id="Path_89639" data-name="Path 89639" d="M186.151,87.592c-4.247,2.538-6.506,7.331-9.781,11.038s-9.154,6.35-13.02,3.266a8.952,8.952,0,0,1-2.909-6.309,16.176,16.176,0,0,1,2.308-9.82c1.847-3.009,4.663-5.375,6.226-8.541s1.244-7.8-1.959-9.284c-1.733-.8-3.912-.487-5.45-1.621-2.762-2.036-.784-6.847,2.426-8.062s6.772-.273,10.2-.055c12.425.793,21.562-7.342,30.9-14.1,7.263-5.256,22.737-11.463,31.144-6.094,3.354,2.142,4.664,7.649,1.5,10.07-1.414,1.082-3.364,1.324-4.68,2.522-1.58,1.439-1.8,3.8-2.708,5.737C228,61.368,221.218,63.194,219.035,68.3c-1.315,3.073-.721,6.894-2.747,9.552-1.607,2.107-4.394,2.85-6.971,3.463l-16.2,3.853a24.277,24.277,0,0,0-6.965,2.424" transform="translate(49.186 11.033)" fill="#ebebeb"/>
              <path id="Path_89640" data-name="Path 89640" d="M322.4,319.923c-5.375,8.1-6.35,18.221-7.842,27.826s-4.054,19.814-11.436,26.14-20.937,5.952-25-2.88c-2.2-4.794-1.073-10.446-2.277-15.585-1.567-6.693-6.894-11.858-9.422-18.25-2.158-5.453-2.163-11.477-2.338-17.339-.962-32.03-8.772-65.459-30.58-88.939-2.678-2.884-5.72-5.694-9.525-6.7a12.166,12.166,0,0,0-12.514,4.315c-1.75,2.318-2.654,5.275-4.8,7.234-4.659,4.255-12.8,1.206-15.909-4.284s-2.68-12.217-2.16-18.506l1.937-23.394c.337-4.079.8-8.457,3.473-11.553,3.807-4.4,10.635-4.608,15.292-8.1,6.106-4.574,6.92-13.3,10.77-19.888s15.9-9.372,17.685-1.954c12.748-27.285,40.918,13.251,57.671,10.2,4.864-.885,9.617-3.222,14.515-2.537,8.647,1.21,13.111,10.738,16.054,18.958l14.652,40.938c1.86,5.2,4.263,10.976,9.411,12.971,3.946,1.529,8.528.362,12.5,1.81,10.512,3.824,7.094,20.367-1.364,27.687s-20.333,11.937-24.355,22.376c-3.028,7.862-.613,17.079-3.872,24.849-2.334,5.561-7.24,9.58-10.574,14.6" transform="translate(57.774 42.532)" fill="#ebebeb"/>
              <path id="Path_89641" data-name="Path 89641" d="M327.927,290.856c-3.454.484-7.532-1.222-10.157,1.076-1.532,1.34-1.87,3.539-2.479,5.481A11.694,11.694,0,0,1,310.4,304.1a7.35,7.35,0,0,1-7.989-.145c-2.252-1.706-2.939-5.341-1.1-7.483a37.183,37.183,0,0,1,2.982-2.438c4.585-4.334,1.446-12.369,4.932-17.519,2.056-3.037,5.29-6.12,7.549-9.2,1.737-2.367,2.373-4.244,5.566-4.874,13.972-2.75,20.286,26.355,5.589,28.414" transform="translate(92.155 80.494)" fill="#ebebeb"/>
              <g id="Group_130915" data-name="Group 130915" transform="translate(167.207 434.857)" opacity="0.6">
                <g id="Group_130914" data-name="Group 130914">
                  <g id="Group_130913" data-name="Group 130913" clip-path="url(#clip-path-4)">
                    <path id="Path_89642" data-name="Path 89642" d="M127.939,332.732q2.7,1.825,5.473,3.557c1.289.814,2.579,1.595,3.9,2.375-1.323-.78-2.612-1.56-3.9-2.375q-2.772-1.729-5.473-3.557" transform="translate(-127.939 -332.733)" fill="#263238"/>
                  </g>
                </g>
              </g>
              <g id="Group_130918" data-name="Group 130918" transform="translate(72.278 247.886)" opacity="0.6">
                <g id="Group_130917" data-name="Group 130917">
                  <g id="Group_130916" data-name="Group 130916" clip-path="url(#clip-path-5)">
                    <path id="Path_89643" data-name="Path 89643" d="M55.44,189.7v0c-.034.406-.068.78-.068,1.187-.051,1.273-.047,2.575-.068,3.867.021-1.293.017-2.594.068-3.867,0-.406.034-.78.068-1.187" transform="translate(-55.304 -189.671)" fill="#263238"/>
                  </g>
                </g>
              </g>
              <path id="Path_89644" data-name="Path 89644" d="M83.212,251.391c-.678-6.14,1.358-12.28,1.459-18.486.068-4.274-.237-8.785-.3-13.093a58.981,58.981,0,0,1-10.888-1.527,3.256,3.256,0,0,1-2-1.018,3.974,3.974,0,0,1-.442-2.273c-.272-4.816-4.919-8-9.091-10.414a36.272,36.272,0,0,0-6.614-3.255c0,.508,0,.984.034,1.492A213.614,213.614,0,0,0,69,270.827a205.36,205.36,0,0,0,13.093,28.085c2.1,3.9,4.41,7.734,6.818,11.5,2.984,4.646,6.1,9.192,9.463,13.568,3.12,4.207,6.444,8.31,9.938,12.244a212.425,212.425,0,0,0,15.162,15.6q7.073,6.614,14.757,12.55c-11.7-31.409-22.727-63.463-42.739-90.192-5.258-6.988-11.3-14.111-12.28-22.794" transform="translate(16.982 61.792)" fill="#ebebeb"/>
              <path id="Path_89645" data-name="Path 89645" d="M84.764,217.386c-.44-.068-.848-.136-1.289-.2-3.765-.406-8.175-.61-10.244-3.731-2.409-3.629-.034-9.023-2.511-12.584-1.289-1.865-3.527-2.679-5.36-4-1.831-1.287-3.391-3.73-2.271-5.7.915-1.661,3.29-2,4.476-3.527a3.46,3.46,0,0,0-.068-4.24c-3.866-4.58-8.174,4.748-10.31,6.954a18.575,18.575,0,0,1-1.73,1.627v.034c-.034.408-.068.78-.068,1.188-.051,1.272-.047,2.573-.068,3.866s-.068,2.579-.068,3.867c0,1.051-.017,1,0,2.045s.068,3.2.1,4.231a36.27,36.27,0,0,1,6.614,3.255c4.172,2.409,8.819,5.6,9.091,10.414a3.983,3.983,0,0,0,.44,2.273,3.263,3.263,0,0,0,2,1.018A59.016,59.016,0,0,0,84.392,225.7" transform="translate(16.956 55.906)" fill="#ebebeb"/>
              <path id="Path_89646" data-name="Path 89646" d="M77.849,221.267c.068,4.308.372,8.819.3,13.093-.1,6.208-2.137,12.346-1.457,18.486.983,8.683,7.021,15.806,12.279,22.794,20.013,26.729,31.037,58.784,42.739,90.193h.034c2.171,1.729,4.376,3.358,6.614,4.952q2.645,1.907,5.347,3.735t5.473,3.558c1.29.814,2.579,1.594,3.9,2.375-.17-.374-.34-.712-.508-1.086-4.715-10.346-4.987-25.27,5.154-30.391,1.934-.984,4.139-1.526,5.733-3.019,4.512-4.274.814-13.093,5.326-17.368,2.543-2.375,6.512-2.2,9.667-3.629,5.664-2.611,7.5-9.87,7.055-16.112-.474-6.206-2.511-12.38-1.8-18.587,1.12-9.4,8.447-18.928,4.24-27.408-4.714-9.463-18.451-7.938-28.118-12.178-13.5-5.936-17.674-22.692-26.493-34.53-7.9-10.584-26.355-22.218-40.4-19.029-10.177,2.307-13.67,8.379-14.723,15.84" transform="translate(23.498 60.335)" fill="#ebebeb"/>
              <path id="Path_89647" data-name="Path 89647" d="M68.048,170.459c4-3.425,10.923-3.833,14.009.44,2.2,3.053,1.7,7.225,1.12,10.957-.782,5.02-1.561,10.041-2.375,15.06a7.829,7.829,0,0,0,.2,4.512c1.491,3.188,6.716,2.577,8.717-.272,2.035-2.883,1.8-6.749,1.255-10.21-.542-3.493-1.255-7.157.1-10.414,3.391-8.073,15.434-6.851,22.422-12.109,4.342-3.257,6.275-8.718,8.853-13.5s6.885-9.565,12.313-9.328c1.831.069,3.629.746,5.462.678,5.358-.17,8.479-8,4.68-11.8a13.482,13.482,0,0,1-2.375-2.443c-.949-1.8.068-4.1,1.7-5.326a12.712,12.712,0,0,1,5.7-1.831c4.579-.746,9.159-1.457,13.738-2.171,5.054-.78,11.532-3.391,10.82-8.447-.61-4.376-6.546-6.343-7.429-10.684a14.27,14.27,0,0,0-.576-3.189c-1.391-2.781-5.564-1.661-8.243-.17-1.086-4.036-6.852-5.868-10.075-3.222-2.713,2.237-3.052,6.173-4,9.531-2.239,8.141-8.717,14.315-14.89,20.046-2.07,1.9-4.411,3.935-7.226,4.071s-5.766-2.883-4.477-5.358c.882-1.7,3.325-2.68,3.087-4.581-.34-2.373-4.477-2.2-5.292-4.478,1.629-6.715,9.328-9.5,15.231-13.093A36.866,36.866,0,0,0,146.064,84c.476-1.256.848-2.748.2-3.936-.882-1.7-3.155-1.966-5.088-1.966-4.545-.068-10.21.542-11.872,4.782-.882,2.273-.237,4.85-.78,7.226-1.594,7.053-11.261,7.834-17.162,12.041-2.307,1.627-4.105,3.9-6.648,5.156-2.748,1.323-5.97,1.221-9.023,1.459-.542.033-1.086.1-1.628.17q-2.8,3.891-5.4,7.928t-5.016,8.183a212.218,212.218,0,0,0-18.588,41.452q-2.492,7.6-4.4,15.458t-3.231,15.917c2.1-4.342,3.052-9.7,3.867-13.5,1.119-5.122,2.781-10.482,6.749-13.907" transform="translate(17.627 23.968)" fill="#ebebeb"/>
              <path id="Path_89648" data-name="Path 89648" d="M435.508,250.577s-5.394,3.934-8.615,3.866c-5.156-.067-9.4-4.374-11.465-9.124-2.1-4.748-2.577-10.006-3.968-14.993-.746-2.679-2-5.528-4.512-6.716-1.663-.779-3.629-.677-5.394-1.221-6.342-1.9-8.073-10.752-14.077-13.5a20.435,20.435,0,0,0-6.038-1.255c-8.038-.95-16.348-3.731-21.4-10.04-1.662-2.035-2.918-4.444-4.953-6.106-2.069-1.662-5.258-2.375-7.259-.678,1.7,3.393,3.359,6.784,5.02,10.143,1.527,3.052,3.087,6.207,5.63,8.445,2.579,2.273,6.378,3.459,9.465,2.035,1.017-.474,2.035-1.255,3.189-1.119a3.45,3.45,0,0,1,2.069,1.323c4.374,4.85,2.951,12.889-1.324,17.842-4.24,4.918-10.549,7.5-16.62,9.9-2.171.848-4.478,1.73-6.784,1.323-4.206-.78-6.444-5.358-7.666-9.463-2.747-9.091-4.07-18.961-9.7-26.627-1.8-2.409-4.037-4.613-5.122-7.427-1.154-3.054-.882-6.616-2.715-9.295-1.9-2.815-5.936-4.444-6.207-7.835-.17-2.375,1.8-4.478,3.968-5.5,2.171-1.051,4.613-1.357,6.852-2.273.882-.372,1.866-1.018,1.9-1.967,0-1.425-1.968-2-2.477-3.325-.542-1.493.983-2.883,1.628-4.342,1.391-3.324-2.07-6.682-5.428-8.039-3.324-1.357-7.361-2.341-8.921-5.6a19.342,19.342,0,0,1-1.085-4.85c-.78-4.1-3.8-8.073-7.938-8.751-4.172-.678-8.785,3.019-8.107,7.157.408,2.273,2.1,4.037,3.019,6.14.95,2.1.68,5.224-1.493,5.9-3.561,1.086-6.987-5.426-9.972-3.189,1.221,4.173,2.407,8.345,3.629,12.55-4.681,2.375-10.277-1.933-12.279-6.817-2-4.851-2.07-10.414-4.444-15.1-2.375-4.714-8.785-8.207-12.856-4.884-.2,6.038,7.768,8.479,11.3,13.365,2.543,3.527,2.171,9.26-1.594,11.5-3.731,2.239-9.667-1.662-8.243-5.766.508-1.424,1.7-2.612,1.832-4.139.135-1.9-1.46-3.425-2.917-4.646-2.274-1.934-4.547-3.833-6.818-5.733a14.332,14.332,0,0,0-4.851-3.053c-4.68-1.355-9.362,2.443-11.838,6.616-2.476,4.206-3.866,9.124-7.293,12.618-4.918,5.088-14.245,5.392-18.859.067-4.647-5.324-2.273-15.3,4.544-17.231,2.579-.712,5.835-.644,7.192-2.917,2.373-4.037-4.41-9.193-2.069-13.263,1.8-3.121,6.546-1.7,10.006-2.748,3.425-1.051,5.36-4.511,7.394-7.5,2-2.951,5.156-5.936,8.683-5.156-.27-2.07-.542-4.309.374-6.174.915-1.9,3.493-3.121,5.188-1.9-1.729,2.849.34,6.817,3.359,8.242s6.546,1.086,9.871.713c3.325-.408,7.5-1.628,7.767-4.953.1-1.085-.3-2.239.1-3.256,1.457-3.969,8.784,1.493,11.6-1.7,1.627-1.662-.17-4.613-2.443-5.156-2.239-.576-4.579.271-6.886.338-2.307.1-5.122-1.119-5.224-3.425-.1-2.273,2.443-3.9,2.715-6.139.44-3.8-6-4.783-8.277-1.7-2.239,3.086-1.459,7.327-.78,11.092.712,3.765,1.051,8.209-1.73,10.854-1.187,1.8-4.274.848-5.292-1.051-1.052-1.9-.814-4.207-.984-6.344-.168-2.171-1.119-4.613-3.222-5.19-1.459-.406-3.019.3-4.512.508-5.9.712-10.006-6.919-8.141-12.549,1.832-5.666,7.191-9.295,12.382-12.178,3.8-2.1,8.513-4.071,12.279-1.933,1.763.983,2.985,2.679,4.714,3.7,2.985,1.763,6.682,1.119,10.109,1.187a23.548,23.548,0,0,1,14.754,5.732c1.528,1.391,2.952,3.7,1.764,5.36-1.289,1.764-4.986,2.137-4.342,4.206a7.355,7.355,0,0,0,9.227-5.936,6.172,6.172,0,0,1,3.561,5.02c4.308-4.376,12.584-3.73,16.112,1.324.949,1.323,1.628,2.916,2.985,3.833,1.357.881,3.731.44,3.9-1.154a3.24,3.24,0,0,0-.272-1.493c-.814-2.307-1.662-4.578-2.477-6.852,3.155-1.7,6.886.95,9.023,3.8,7.937,10.617,13.6,4.24,24.8,5.97,7.564,1.153,10.889,6,15.163,11.872,13.093,18.045,30.393,32.835,42.3,51.694,1.255,1.967,2.407,3.968,3.492,6h0v.034q1.527,4.07,2.879,8.2t2.549,8.322a187.36,187.36,0,0,1,5.14,21.039s1.489,12.12,1.848,16.07c.274,3.022.542,6.046.708,9.09s.257,6.106.276,9.193Z" transform="translate(64.873 20.375)" fill="#ebebeb"/>
              <path id="Path_89649" data-name="Path 89649" d="M442.881,339a39.75,39.75,0,1,1-36.9-42.322A39.707,39.707,0,0,1,442.881,339" transform="translate(111.56 91.027)" fill="#ebebeb"/>
              <path id="Path_89650" data-name="Path 89650" d="M431.225,336.123a30.292,30.292,0,1,1-28.12-32.254,30.257,30.257,0,0,1,28.12,32.254" transform="translate(113.781 93.242)" fill="#ebebeb"/>
              <path id="Path_89651" data-name="Path 89651" d="M431.294,336.182a3.02,3.02,0,0,1-.023-.493c0-.354,0-.831,0-1.437,0-.32,0-.672.005-1.059-.017-.389-.072-.813-.11-1.273a22.125,22.125,0,0,0-.423-3.151,28.854,28.854,0,0,0-2.81-8.214,30.072,30.072,0,0,0-35.084-15.233,31.2,31.2,0,0,0-4.019,1.44c-.655.3-1.287.653-1.938.979A15.167,15.167,0,0,0,385,308.857a27.387,27.387,0,0,0-6.767,5.9,28.9,28.9,0,0,0-4.853,7.925,29.582,29.582,0,0,0-1.315,18.846,28.9,28.9,0,0,0,3.708,8.525,27.409,27.409,0,0,0,5.885,6.778,27.686,27.686,0,0,0,7.284,4.587,30.2,30.2,0,0,0,15.618,2.4A30.215,30.215,0,0,0,425.8,351.19a28.837,28.837,0,0,0,3.92-7.744,21.985,21.985,0,0,0,.856-3.064c.1-.45.215-.861.285-1.244q.078-.574.142-1.048c.085-.6.153-1.073.2-1.424a2.951,2.951,0,0,1,.091-.484,2.755,2.755,0,0,1-.026.49c-.035.353-.082.828-.141,1.435q-.051.478-.112,1.058c-.061.386-.165.8-.257,1.257a21.494,21.494,0,0,1-.805,3.1,28.585,28.585,0,0,1-3.863,7.87,30.486,30.486,0,0,1-21.473,12.949A30.665,30.665,0,0,1,388.7,361.95a28.224,28.224,0,0,1-7.441-4.662,27.962,27.962,0,0,1-6.017-6.906,29.485,29.485,0,0,1-3.794-8.7,30.15,30.15,0,0,1,1.342-19.246,29.5,29.5,0,0,1,4.964-8.088,27.993,27.993,0,0,1,6.915-6,15.34,15.34,0,0,1,1.932-1.132c.664-.332,1.31-.7,1.98-.994a31.509,31.509,0,0,1,4.1-1.457,30.66,30.66,0,0,1,16.091-.166,30.49,30.49,0,0,1,19.472,15.8,28.633,28.633,0,0,1,2.735,8.33,21.31,21.31,0,0,1,.369,3.182c.029.463.073.89.08,1.281-.013.39-.025.744-.035,1.064-.025.609-.044,1.086-.059,1.441a2.858,2.858,0,0,1-.042.489" transform="translate(113.712 93.183)" fill="#e0e0e0"/>
              <path id="Path_89652" data-name="Path 89652" d="M430.939,336.394c-.182-.006-.217-1.341-.539-3.688a32.288,32.288,0,0,0-2.807-9.5,30.861,30.861,0,0,0-3.578-5.766,30.057,30.057,0,0,0-5.543-5.4A29.216,29.216,0,0,0,411,307.979a28.468,28.468,0,0,0-4.327-1.217,29.124,29.124,0,0,0-9.224-.351,29.268,29.268,0,0,0-4.411.886,27.864,27.864,0,0,0-4.084,1.494,28.2,28.2,0,0,0-3.675,1.989,30.157,30.157,0,0,0-5.94,4.968,31.027,31.027,0,0,0-4.011,5.478,32.435,32.435,0,0,0-3.525,9.261c-.5,2.316-.637,3.648-.818,3.637-.136,0-.3-1.347-.065-3.781a28.26,28.26,0,0,1,2.981-9.9,30.31,30.31,0,0,1,10.229-11.455,30.38,30.38,0,0,1,8.29-3.872,30.4,30.4,0,0,1,4.753-.992,30.525,30.525,0,0,1,9.95.378,30.132,30.132,0,0,1,4.662,1.349,30.54,30.54,0,0,1,7.968,4.487,30.235,30.235,0,0,1,9.322,12.194,28.266,28.266,0,0,1,2.215,10.1c.051,2.443-.22,3.772-.354,3.764" transform="translate(113.809 93.271)" fill="#e0e0e0"/>
              <path id="Path_89653" data-name="Path 89653" d="M388.184,346.924a16.22,16.22,0,0,1-1.9-1.068l-1.817-1.243,15.1-30.913,4.575,2.235-13.062,26.737c3.5,1.532,11.113,3.406,17.8-4.977l3.981,3.175c-6.141,7.7-13.064,8.658-17.79,8.1a21.665,21.665,0,0,1-6.887-2.05" transform="translate(118.003 96.283)" fill="#e0e0e0"/>
              <rect id="Rectangle_20302" data-name="Rectangle 20302" width="2.716" height="25.56" transform="matrix(0.115, -0.993, 0.993, 0.115, 504.042, 421.229)" fill="#e0e0e0"/>
              <rect id="Rectangle_20303" data-name="Rectangle 20303" width="2.716" height="25.56" transform="matrix(0.115, -0.993, 0.993, 0.115, 501.566, 426.298)" fill="#e0e0e0"/>
              <path id="Path_89656" data-name="Path 89656" d="M77.262,76.387a2.475,2.475,0,0,1-.2-.371c-.135-.273-.315-.642-.546-1.11l-.395-.819c-.159-.294-.362-.6-.566-.941a18.827,18.827,0,0,0-1.516-2.275,24.767,24.767,0,0,0-5.268-5.283,25.85,25.85,0,0,0-32.846,1.473,26.912,26.912,0,0,0-2.56,2.627c-.395.476-.749.992-1.128,1.489a13.08,13.08,0,0,0-1.04,1.575,23.611,23.611,0,0,0-3,7.106,24.889,24.889,0,0,0-.758,7.953,25.416,25.416,0,0,0,6.1,15.052,24.862,24.862,0,0,0,6.08,5.186,29.23,29.23,0,0,0,3.462,1.814,29.141,29.141,0,0,0,3.641,1.2,23.754,23.754,0,0,0,7.357.795,25.96,25.96,0,0,0,12.97-4.034A25.976,25.976,0,0,0,78.679,90.052a24.788,24.788,0,0,0,.106-7.46,18.772,18.772,0,0,0-.5-2.688c-.09-.386-.158-.746-.25-1.069s-.2-.6-.285-.863c-.161-.5-.286-.887-.38-1.178a2.424,2.424,0,0,1-.112-.408,2.372,2.372,0,0,1,.165.388c.106.286.25.672.433,1.162.094.259.2.546.312.86.1.322.175.682.276,1.068a18.3,18.3,0,0,1,.548,2.7,24.56,24.56,0,0,1-.014,7.536,26.2,26.2,0,0,1-11.7,18.1,26.354,26.354,0,0,1-13.193,4.156,24.172,24.172,0,0,1-7.506-.792,29.683,29.683,0,0,1-3.718-1.218,29.552,29.552,0,0,1-3.535-1.845,25.4,25.4,0,0,1-6.213-5.289,25.915,25.915,0,0,1-6.225-15.371,25.383,25.383,0,0,1,.782-8.119,24.027,24.027,0,0,1,3.077-7.247,13.586,13.586,0,0,1,1.064-1.6c.389-.507.75-1.031,1.155-1.515a27.237,27.237,0,0,1,2.618-2.674,26.354,26.354,0,0,1,12.365-6.2,26.2,26.2,0,0,1,21,4.855,24.575,24.575,0,0,1,5.255,5.4,18.511,18.511,0,0,1,1.486,2.32c.2.346.392.659.545.958l.374.835.5,1.136a2.359,2.359,0,0,1,.153.393" transform="translate(8.233 18.407)" fill="#ebebeb"/>
              <path id="Path_89659" data-name="Path 89659" d="M48.952,238.732a24.8,24.8,0,1,1-29.78-18.45,24.773,24.773,0,0,1,29.78,18.45" transform="translate(0 67.409)" fill="#ebebeb"/>
              <path id="Path_89660" data-name="Path 89660" d="M41.821,238.693a18.9,18.9,0,1,1-22.695-14.06,18.879,18.879,0,0,1,22.695,14.06" transform="translate(1.386 68.792)" fill="#ebebeb"/>
              <path id="Path_89661" data-name="Path 89661" d="M41.862,238.729a1.867,1.867,0,0,1-.1-.289c-.065-.212-.154-.5-.267-.857q-.086-.286-.192-.631c-.081-.23-.192-.472-.3-.739a13.725,13.725,0,0,0-.831-1.8,17.97,17.97,0,0,0-3.185-4.379A18.761,18.761,0,0,0,13.265,227.4a19.746,19.746,0,0,0-2.132,1.6c-.336.3-.648.627-.976.941a9.6,9.6,0,0,0-.923,1.013,21,21,0,0,0-1.656,2.235,21.023,21.023,0,0,0-1.294,2.524,18.025,18.025,0,0,0-1.436,5.617A18.448,18.448,0,0,0,7.529,252.8a18.046,18.046,0,0,0,3.777,4.4,21.366,21.366,0,0,0,2.278,1.69,21.244,21.244,0,0,0,2.477,1.269,19.361,19.361,0,0,0,2.568.909,19.4,19.4,0,0,0,2.619.487A18.842,18.842,0,0,0,31,260.122a18.858,18.858,0,0,0,10.343-11.434,17.976,17.976,0,0,0,.914-5.338,13.827,13.827,0,0,0-.052-1.984c-.022-.286-.031-.553-.059-.794s-.076-.455-.108-.651c-.059-.375-.106-.668-.14-.886a1.784,1.784,0,0,1-.035-.306,1.82,1.82,0,0,1,.074.3c.044.217.1.51.179.882.039.2.081.413.128.651s.05.51.078.8a13.378,13.378,0,0,1,.089,2,17.839,17.839,0,0,1-.856,5.4,19.023,19.023,0,0,1-10.423,11.668,19.139,19.139,0,0,1-9.927,1.5,19.963,19.963,0,0,1-2.671-.49,19.726,19.726,0,0,1-2.622-.921,21.328,21.328,0,0,1-2.529-1.291,21.416,21.416,0,0,1-2.329-1.72,18.4,18.4,0,0,1-3.861-4.489,18.826,18.826,0,0,1-2.738-11.722,18.373,18.373,0,0,1,1.473-5.735,21.428,21.428,0,0,1,1.324-2.573,21.526,21.526,0,0,1,1.7-2.277,9.566,9.566,0,0,1,.944-1.031c.336-.319.653-.655,1-.957a19.627,19.627,0,0,1,2.177-1.623,19.123,19.123,0,0,1,9.563-3.055,19.014,19.014,0,0,1,14.513,5.841,17.864,17.864,0,0,1,3.163,4.463,13.294,13.294,0,0,1,.8,1.83c.1.271.208.518.284.749s.122.448.174.64c.1.369.174.656.23.87a1.768,1.768,0,0,1,.065.3" transform="translate(1.345 68.756)" fill="#e0e0e0"/>
              <path id="Path_89662" data-name="Path 89662" d="M41.723,238.9a11.178,11.178,0,0,1-1-2.1,20.16,20.16,0,0,0-3.42-5.149,19.325,19.325,0,0,0-3.194-2.781,18.789,18.789,0,0,0-4.3-2.2,17.407,17.407,0,0,0-2.509-.7,17.227,17.227,0,0,0-2.69-.344,17.9,17.9,0,0,0-2.8.069,19.932,19.932,0,0,0-2.841.522,19.715,19.715,0,0,0-2.722.966,18.226,18.226,0,0,0-2.467,1.338,18.244,18.244,0,0,0-3.985,3.5,18.8,18.8,0,0,0-2.628,4.053,19.336,19.336,0,0,0-1.385,4,20.232,20.232,0,0,0-.4,6.169,11.266,11.266,0,0,1,.18,2.32,5.6,5.6,0,0,1-.733-2.243,17.619,17.619,0,0,1-.043-6.451,18.912,18.912,0,0,1,3.993-8.709,18.028,18.028,0,0,1,1.926-2.035,18.271,18.271,0,0,1,2.305-1.8,18.8,18.8,0,0,1,2.65-1.465,20.536,20.536,0,0,1,2.935-1.049,20.439,20.439,0,0,1,3.066-.554,18.966,18.966,0,0,1,3.028-.054,18.29,18.29,0,0,1,2.894.408,18.012,18.012,0,0,1,2.682.8,18.894,18.894,0,0,1,7.8,5.556,17.641,17.641,0,0,1,3.177,5.613,5.612,5.612,0,0,1,.481,2.311" transform="translate(1.384 68.806)" fill="#e0e0e0"/>
              <rect id="Rectangle_20304" data-name="Rectangle 20304" width="3.614" height="15.501" transform="translate(18.268 305.159) rotate(-81.1)" fill="#e0e0e0"/>
              <rect id="Rectangle_20305" data-name="Rectangle 20305" width="3.614" height="20.396" transform="translate(15.202 310.093) rotate(-81.101)" fill="#e0e0e0"/>
              <path id="Path_89663" data-name="Path 89663" d="M23.535,250.437h0c-1.674-.263-4.428-1.37-4.054-5.821.216-2.575,1.03-7.221,1.065-7.417l3.559.626c-.009.046-.822,4.681-1.023,7.093-.149,1.767.34,1.844,1.015,1.95.83.131,1.3-1.249,1.3-1.264l3.446,1.084c-.468,1.512-2.179,4.241-5.306,3.751" transform="translate(5.967 72.802)" fill="#e0e0e0"/>
              <path id="Path_89664" data-name="Path 89664" d="M10.914,247.428l-.416-3.59.208,1.8-.217-1.794a8.149,8.149,0,0,0,6.9-7.272L20.98,237a11.712,11.712,0,0,1-10.066,10.428" transform="translate(3.219 72.609)" fill="#e0e0e0"/>
              <path id="Path_89665" data-name="Path 89665" d="M461.769,153.63a30.982,30.982,0,1,1-37.2-23.049,30.947,30.947,0,0,1,37.2,23.049" transform="translate(122.959 39.827)" fill="#fafafa"/>
              <path id="Path_89666" data-name="Path 89666" d="M452.859,153.579a23.61,23.61,0,1,1-28.351-17.565,23.585,23.585,0,0,1,28.351,17.565" transform="translate(124.69 41.554)" fill="#fafafa"/>
              <path id="Path_89667" data-name="Path 89667" d="M452.91,153.624a2.3,2.3,0,0,1-.13-.362c-.082-.263-.192-.618-.333-1.07l-.239-.789c-.1-.285-.241-.587-.374-.921a17.231,17.231,0,0,0-1.04-2.251,22.428,22.428,0,0,0-3.978-5.472,23.437,23.437,0,0,0-29.629-3.287,24.047,24.047,0,0,0-2.662,1.994c-.421.371-.809.783-1.219,1.174a11.805,11.805,0,0,0-1.153,1.265,21.417,21.417,0,0,0-3.685,5.944,22.555,22.555,0,0,0-1.795,7.018,23.049,23.049,0,0,0,3.349,14.338,22.553,22.553,0,0,0,4.719,5.5,21.375,21.375,0,0,0,5.94,3.7,23.845,23.845,0,0,0,3.207,1.136,24.433,24.433,0,0,0,3.272.609,23.522,23.522,0,0,0,12.184-1.8,23.554,23.554,0,0,0,12.92-14.282A22.477,22.477,0,0,0,453.4,159.4a17.159,17.159,0,0,0-.065-2.478c-.028-.357-.038-.691-.073-.992s-.1-.568-.136-.813c-.073-.468-.132-.834-.175-1.108a2.335,2.335,0,0,1-.043-.382A2.172,2.172,0,0,1,453,154c.055.27.129.636.225,1.1.047.244.1.516.159.813.043.3.061.636.1,1a16.794,16.794,0,0,1,.112,2.495,22.3,22.3,0,0,1-1.07,6.749,23.765,23.765,0,0,1-13.019,14.575,23.893,23.893,0,0,1-12.4,1.874,22.017,22.017,0,0,1-6.612-1.763,21.9,21.9,0,0,1-6.068-3.763,23,23,0,0,1-4.824-5.609,23.493,23.493,0,0,1-3.419-14.641,22.946,22.946,0,0,1,1.839-7.165,21.845,21.845,0,0,1,3.772-6.06,12.1,12.1,0,0,1,1.179-1.287c.418-.4.817-.817,1.247-1.194a24.711,24.711,0,0,1,2.72-2.027,23.893,23.893,0,0,1,11.947-3.819,23.767,23.767,0,0,1,18.131,7.3,22.306,22.306,0,0,1,3.951,5.575,16.815,16.815,0,0,1,1.005,2.286c.126.338.258.646.352.936s.153.559.218.8c.121.461.217.819.288,1.087a2.3,2.3,0,0,1,.081.374" transform="translate(124.639 41.509)" fill="#f5f5f5"/>
              <path id="Path_89668" data-name="Path 89668" d="M452.737,153.844a14.05,14.05,0,0,1-1.248-2.624,25.229,25.229,0,0,0-4.272-6.433,24.182,24.182,0,0,0-3.991-3.474,23.474,23.474,0,0,0-5.368-2.748,21.754,21.754,0,0,0-3.134-.877,21.524,21.524,0,0,0-3.36-.43,22.383,22.383,0,0,0-3.5.087,24.476,24.476,0,0,0-3.548.65,24.729,24.729,0,0,0-3.4,1.208,22.561,22.561,0,0,0-3.082,1.673,22.878,22.878,0,0,0-4.979,4.376,23.459,23.459,0,0,0-3.284,5.063,24.169,24.169,0,0,0-1.729,5,25.211,25.211,0,0,0-.5,7.708,13.994,13.994,0,0,1,.226,2.9,6.952,6.952,0,0,1-.916-2.8,21.992,21.992,0,0,1-.054-8.059,23.621,23.621,0,0,1,4.988-10.88,22.58,22.58,0,0,1,2.406-2.543,22.832,22.832,0,0,1,2.881-2.245,23.583,23.583,0,0,1,3.312-1.83,23.769,23.769,0,0,1,7.5-2,23.83,23.83,0,0,1,3.783-.067A23.7,23.7,0,0,1,438.424,137a23.6,23.6,0,0,1,9.743,6.941,22.016,22.016,0,0,1,3.969,7.013,6.973,6.973,0,0,1,.6,2.886" transform="translate(124.688 41.572)" fill="#f5f5f5"/>
              <rect id="Rectangle_20306" data-name="Rectangle 20306" width="4.514" height="19.364" transform="translate(546.395 192.229) rotate(-81.101)" fill="#f5f5f5"/>
              <rect id="Rectangle_20307" data-name="Rectangle 20307" width="4.514" height="25.48" transform="matrix(0.155, -0.988, 0.988, 0.155, 542.564, 198.392)" fill="#f5f5f5"/>
              <path id="Path_89669" data-name="Path 89669" d="M430.016,168.251h-.005c-2.091-.329-5.531-1.712-5.065-7.273.269-3.215,1.287-9.019,1.331-9.265l4.445.782c-.009.059-1.024,5.848-1.277,8.861-.186,2.207.423,2.3,1.268,2.436h0c1.037.163,1.62-1.562,1.625-1.579l4.306,1.354c-.584,1.888-2.721,5.3-6.629,4.685" transform="translate(130.414 46.564)" fill="#f5f5f5"/>
              <path id="Path_89670" data-name="Path 89670" d="M414.248,164.491l-.519-4.484.26,2.241-.272-2.24a10.178,10.178,0,0,0,8.623-9.084l4.482.54a14.632,14.632,0,0,1-12.574,13.028" transform="translate(126.981 46.322)" fill="#f5f5f5"/>
              <path id="Path_89673" data-name="Path 89673" d="M400.266,43.947a3.026,3.026,0,0,1-.17-.472c-.107-.345-.252-.808-.437-1.4q-.141-.467-.312-1.031c-.133-.374-.314-.77-.489-1.2A22.28,22.28,0,0,0,397.5,36.9a29.355,29.355,0,0,0-5.2-7.15,30.625,30.625,0,0,0-38.711-4.3,31.732,31.732,0,0,0-3.478,2.607c-.55.484-1.059,1.022-1.593,1.534a15.58,15.58,0,0,0-1.507,1.652,34.6,34.6,0,0,0-2.7,3.648,34.257,34.257,0,0,0-2.11,4.119,29.436,29.436,0,0,0-2.345,9.168,32.434,32.434,0,0,0,.651,9.725,32.506,32.506,0,0,0,3.725,9.01,29.442,29.442,0,0,0,6.164,7.182,34.532,34.532,0,0,0,3.718,2.759,34.6,34.6,0,0,0,4.043,2.071,28.206,28.206,0,0,0,8.465,2.279,30.761,30.761,0,0,0,15.918-2.346A30.768,30.768,0,0,0,399.419,60.2a29.317,29.317,0,0,0,1.491-8.711,22.3,22.3,0,0,0-.086-3.237c-.036-.468-.05-.9-.1-1.3-.066-.388-.125-.744-.177-1.064-.1-.61-.173-1.09-.23-1.445a3.035,3.035,0,0,1-.056-.5,2.857,2.857,0,0,1,.122.485c.072.354.169.831.293,1.439q.093.48.207,1.063c.057.395.081.831.128,1.3a21.941,21.941,0,0,1,.146,3.258,29.126,29.126,0,0,1-1.4,8.818,31.044,31.044,0,0,1-17.01,19.043,31.238,31.238,0,0,1-16.2,2.447,28.665,28.665,0,0,1-8.639-2.3,34.913,34.913,0,0,1-4.127-2.107,34.739,34.739,0,0,1-3.8-2.809,30.037,30.037,0,0,1-6.3-7.327,33.053,33.053,0,0,1-3.806-9.2,33.094,33.094,0,0,1-.663-9.931,30.029,30.029,0,0,1,2.4-9.359,35.021,35.021,0,0,1,2.162-4.2,34.64,34.64,0,0,1,2.767-3.716,15.627,15.627,0,0,1,1.539-1.682c.547-.523,1.066-1.069,1.628-1.562a32.371,32.371,0,0,1,3.554-2.649,31.232,31.232,0,0,1,15.609-4.989A31.047,31.047,0,0,1,392.563,29.5a29.043,29.043,0,0,1,5.161,7.286,21.518,21.518,0,0,1,1.314,2.985c.167.443.338.844.462,1.223.1.382.2.731.285,1.046.158.6.282,1.07.375,1.419a2.835,2.835,0,0,1,.106.489" transform="translate(104.077 6.117)" fill="#ebebeb"/>
              <path id="Path_89674" data-name="Path 89674" d="M400.041,44.235c-.179.048-.614-1.24-1.63-3.428a32.934,32.934,0,0,0-5.583-8.4,31.58,31.58,0,0,0-5.213-4.539,30.709,30.709,0,0,0-7.013-3.59,29.783,29.783,0,0,0-8.486-1.709,29.567,29.567,0,0,0-4.577.115,29.514,29.514,0,0,0-9.081,2.427,29.684,29.684,0,0,0-4.027,2.185,29.838,29.838,0,0,0-6.5,5.718,30.7,30.7,0,0,0-4.291,6.614,31.64,31.64,0,0,0-2.259,6.536,32.985,32.985,0,0,0-.651,10.07c.209,2.4.475,3.738.294,3.784-.132.039-.7-1.219-1.2-3.659a28.76,28.76,0,0,1-.07-10.527,30.881,30.881,0,0,1,6.518-14.217,29.474,29.474,0,0,1,3.142-3.321,29.794,29.794,0,0,1,3.763-2.935,30.936,30.936,0,0,1,4.327-2.39,31.03,31.03,0,0,1,9.8-2.618,31,31,0,0,1,4.942-.088,31.042,31.042,0,0,1,9.1,1.977A30.812,30.812,0,0,1,394.071,31.3a28.76,28.76,0,0,1,5.185,9.162c.784,2.363.919,3.736.786,3.77" transform="translate(104.141 6.199)" fill="#ebebeb"/>
              <path id="Path_89675" data-name="Path 89675" d="M386.288,47.027V43.741h-3.473l2.235-9.65-3.376.056-2.222,9.594h-7.211l-2.255-9.623H365.9l-2.378,9.623h-7.149l-2.364-9.7h-3.381l2.363,9.7h-3.407v3.286H353.8l.616,2.526h-4.824v3.286h5.624L357.8,63.454h4.237l2.624-10.615H371l2.529,10.794h4.951l2.355-10.794h5.457V49.553h-4.74l.551-2.526Zm-18.374-7.35.953,4.065h-1.958Zm-10.737,7.35h5.536l-.625,2.526h-4.3ZM359.925,58.3l-1.332-5.463h2.682Zm5.548-8.749.625-2.526h3.539l.591,2.526Zm10.5,10.129-1.6-6.843h3.1Zm2.21-10.129H373.6l-.592-2.526h5.726Z" transform="translate(107.297 10.449)" fill="#ebebeb"/>
            </g>
          </g>
          <g id="Group_130948" data-name="Group 130948" transform="translate(-47.26 24.639)">
            <g id="Group_130947" data-name="Group 130947" clip-path="url(#clip-path-6)">
              <path id="Path_89677" data-name="Path 89677" d="M126.363,179.239a44.027,44.027,0,1,1-57.3-24.18,43.979,43.979,0,0,1,57.3,24.18" transform="translate(6.693 24.465)" fill="#fecd8d"/>
              <path id="Path_89678" data-name="Path 89678" d="M115.2,181.722a33.551,33.551,0,1,1-43.665-18.427A33.513,33.513,0,0,1,115.2,181.722" transform="translate(8.146 25.916)" fill="#fecd8d"/>
              <path id="Path_89679" data-name="Path 89679" d="M115.247,181.757a3.131,3.131,0,0,1-.262-.478c-.173-.353-.406-.826-.7-1.429l-.51-1.055c-.206-.38-.467-.775-.728-1.213a24.319,24.319,0,0,0-1.954-2.931,31.877,31.877,0,0,0-6.788-6.808,33.308,33.308,0,0,0-42.321,1.9,34.482,34.482,0,0,0-3.3,3.385c-.509.613-.964,1.277-1.454,1.918a16.837,16.837,0,0,0-1.34,2.029,30.394,30.394,0,0,0-3.868,9.157,32.036,32.036,0,0,0-.977,10.246,32.765,32.765,0,0,0,7.854,19.4,32.016,32.016,0,0,0,7.834,6.68,37.462,37.462,0,0,0,4.46,2.338,37.505,37.505,0,0,0,4.691,1.545,30.637,30.637,0,0,0,9.48,1.025,33.46,33.46,0,0,0,16.711-5.2,33.474,33.474,0,0,0,15-22.9,31.92,31.92,0,0,0,.136-9.612,24.215,24.215,0,0,0-.637-3.464c-.117-.5-.2-.963-.32-1.377l-.369-1.112-.489-1.516a3.1,3.1,0,0,1-.145-.526,3.074,3.074,0,0,1,.211.5c.138.369.323.865.557,1.5q.183.5.4,1.108c.128.415.226.879.355,1.376a23.63,23.63,0,0,1,.706,3.478,31.631,31.631,0,0,1-.019,9.71,33.768,33.768,0,0,1-15.074,23.327,33.969,33.969,0,0,1-17,5.355,31.234,31.234,0,0,1-9.671-1.022,37.868,37.868,0,0,1-4.79-1.57,37.932,37.932,0,0,1-4.556-2.378,32.652,32.652,0,0,1-8-6.814,33.392,33.392,0,0,1-8.021-19.806,32.634,32.634,0,0,1,1.008-10.462,30.9,30.9,0,0,1,3.963-9.336,17.178,17.178,0,0,1,1.371-2.067c.5-.653.966-1.328,1.487-1.952a35.066,35.066,0,0,1,3.373-3.445,33.97,33.97,0,0,1,15.932-7.986,33.761,33.761,0,0,1,27.059,6.257,31.624,31.624,0,0,1,6.773,6.96,23.719,23.719,0,0,1,1.914,2.987c.253.447.506.85.7,1.236l.482,1.076c.272.618.484,1.1.642,1.463a3.066,3.066,0,0,1,.2.506" transform="translate(8.099 25.881)" fill="#263238"/>
              <g id="Group_130925" data-name="Group 130925" transform="translate(58.713 186.827)" opacity="0.3">
                <g id="Group_130924" data-name="Group 130924">
                  <g id="Group_130923" data-name="Group 130923" clip-path="url(#clip-path-7)">
                    <path id="Path_89680" data-name="Path 89680" d="M115.086,182.134c-.185.082-.869-1.23-2.329-3.41a35.824,35.824,0,0,0-7.413-8.092,34.372,34.372,0,0,0-6.367-4,33.362,33.362,0,0,0-8.14-2.679,32.475,32.475,0,0,0-9.406-.408,31.9,31.9,0,0,0-4.9.893,32.179,32.179,0,0,0-9.35,4.136,32.041,32.041,0,0,0-3.958,3.026A32.4,32.4,0,0,0,57.2,178.84a33.428,33.428,0,0,0-3.5,7.83,34.454,34.454,0,0,0-1.328,7.4,35.89,35.89,0,0,0,1,10.931c.629,2.548,1.139,3.937.953,4.016-.135.064-.956-1.194-1.9-3.731a31.291,31.291,0,0,1-1.847-11.3,33.588,33.588,0,0,1,4.612-16.373,31.994,31.994,0,0,1,2.817-4.1,32.343,32.343,0,0,1,3.551-3.787,33.5,33.5,0,0,1,4.247-3.3,33.746,33.746,0,0,1,10.085-4.462,33.812,33.812,0,0,1,5.295-.924,33.756,33.756,0,0,1,10.114.592,33.522,33.522,0,0,1,15.205,7.6,31.287,31.287,0,0,1,7.113,8.972c1.239,2.408,1.615,3.861,1.478,3.92" transform="translate(-50.565 -160.899)"/>
                  </g>
                </g>
              </g>
              <g id="Group_130928" data-name="Group 130928" transform="translate(76.151 197.551)" opacity="0.3">
                <g id="Group_130927" data-name="Group 130927">
                  <g id="Group_130926" data-name="Group 130926" clip-path="url(#clip-path-8)">
                    <path id="Path_89681" data-name="Path 89681" d="M92.713,209.941l2.272,5.384-4.807,2.027-2.211-5.239c-4.881,1.72-10.078,2.159-13.593,1.206l.167-6.981a21.093,21.093,0,0,0,10.768-.524l-3.389-8.029c-5.883.957-12.595,1.693-15.5-5.183-2.15-5.1-.295-11.032,6.935-15.1l-2.253-5.338,4.808-2.029,2.211,5.241a23.6,23.6,0,0,1,11-1.187l.093,6.927a21.392,21.392,0,0,0-8.411.6l3.45,8.173c5.863-1,12.48-1.7,15.34,5.079,2.11,5,.282,10.869-6.88,14.968M78.939,190.72l-2.882-6.825c-2.3,1.652-2.724,3.473-2.055,5.059.711,1.681,2.538,1.988,4.937,1.766m13.159,8.1c-.711-1.684-2.489-2.008-4.863-1.858l2.8,6.635c2.181-1.543,2.711-3.238,2.062-4.777" transform="translate(-65.583 -170.135)"/>
                  </g>
                </g>
              </g>
              <path id="Path_89682" data-name="Path 89682" d="M216.117,104.336a44.026,44.026,0,1,1-50.661-36.072,43.979,43.979,0,0,1,50.661,36.072" transform="translate(20.733 10.902)" fill="#fecd8d"/>
              <path id="Path_89683" data-name="Path 89683" d="M204.33,104.612a33.551,33.551,0,1,1-38.607-27.49,33.512,33.512,0,0,1,38.607,27.49" transform="translate(22.187 12.353)" fill="#fecd8d"/>
              <path id="Path_89684" data-name="Path 89684" d="M204.373,104.648a3.251,3.251,0,0,1-.152-.525c-.093-.381-.217-.894-.375-1.548q-.122-.516-.268-1.141c-.118-.415-.287-.857-.446-1.342a24.523,24.523,0,0,0-1.269-3.286,31.947,31.947,0,0,0-5.144-8.122A33.31,33.31,0,0,0,155,81.324a34.571,34.571,0,0,0-3.957,2.587c-.631.488-1.219,1.036-1.836,1.555a16.77,16.77,0,0,0-1.75,1.688,30.365,30.365,0,0,0-5.769,8.094,32.042,32.042,0,0,0-3.183,9.788,32.753,32.753,0,0,0,3.444,20.64,32.068,32.068,0,0,0,6.191,8.226,30.368,30.368,0,0,0,8.088,5.782,30.574,30.574,0,0,0,9.029,3.063,33.444,33.444,0,0,0,17.442-1.436,33.474,33.474,0,0,0,19.625-19.081,31.924,31.924,0,0,0,2.225-9.352,24.465,24.465,0,0,0,.132-3.521c-.007-.51.008-.983-.014-1.413q-.064-.639-.119-1.166c-.062-.671-.111-1.2-.147-1.587a3.237,3.237,0,0,1-.027-.545,3.064,3.064,0,0,1,.1.534c.055.39.126.914.218,1.583.045.352.1.742.152,1.168.034.432.03.908.048,1.421a23.712,23.712,0,0,1-.069,3.547,31.643,31.643,0,0,1-2.132,9.474A33.766,33.766,0,0,1,182.9,141.86a33.973,33.973,0,0,1-17.76,1.527,31.223,31.223,0,0,1-9.216-3.1,30.976,30.976,0,0,1-8.263-5.887A32.66,32.66,0,0,1,141.33,126a33.393,33.393,0,0,1-3.517-21.077,32.7,32.7,0,0,1,3.26-9.992,31.032,31.032,0,0,1,5.9-8.25,17.222,17.222,0,0,1,1.789-1.717c.631-.53,1.232-1.087,1.878-1.583a35.133,35.133,0,0,1,4.041-2.628,33.968,33.968,0,0,1,17.289-4.326,33.774,33.774,0,0,1,25.048,12,31.666,31.666,0,0,1,5.1,8.267,23.654,23.654,0,0,1,1.217,3.333c.151.491.309.939.417,1.36.087.422.165.807.237,1.154.13.663.232,1.181.308,1.568a3.076,3.076,0,0,1,.081.538" transform="translate(22.144 12.316)" fill="#263238"/>
              <g id="Group_130931" data-name="Group 130931" transform="translate(159.857 89.119)" opacity="0.3">
                <g id="Group_130930" data-name="Group 130930">
                  <g id="Group_130929" data-name="Group 130929" clip-path="url(#clip-path-9)">
                    <path id="Path_89685" data-name="Path 89685" d="M204.131,104.987c-.2.041-.579-1.39-1.53-3.836a35.856,35.856,0,0,0-5.475-9.51,34.372,34.372,0,0,0-5.342-5.29,33.388,33.388,0,0,0-7.362-4.386,32.435,32.435,0,0,0-9.092-2.446,31.991,31.991,0,0,0-4.977-.2,32.2,32.2,0,0,0-10.025,2,32.309,32.309,0,0,0-4.523,2.092,32.462,32.462,0,0,0-7.459,5.753,33.423,33.423,0,0,0-5.117,6.879,34.425,34.425,0,0,0-2.907,6.938,35.84,35.84,0,0,0-1.409,10.885c.059,2.624.254,4.091.056,4.129-.146.031-.673-1.372-1.045-4.055a31.282,31.282,0,0,1,.658-11.433,33.534,33.534,0,0,1,8.064-14.976,32.054,32.054,0,0,1,3.643-3.388,32.416,32.416,0,0,1,4.288-2.923,33.588,33.588,0,0,1,4.864-2.293,33.673,33.673,0,0,1,10.815-2.16,33.416,33.416,0,0,1,5.369.251,33.691,33.691,0,0,1,9.741,2.779,33.483,33.483,0,0,1,13.186,10.731,31.3,31.3,0,0,1,4.99,10.305c.686,2.618.736,4.12.59,4.148" transform="translate(-137.672 -76.751)"/>
                  </g>
                </g>
              </g>
              <g id="Group_130934" data-name="Group 130934" transform="translate(171.076 104.584)" opacity="0.3">
                <g id="Group_130933" data-name="Group 130933">
                  <g id="Group_130932" data-name="Group 130932" clip-path="url(#clip-path-10)">
                    <path id="Path_89686" data-name="Path 89686" d="M182.643,116.025l5.644,4.778c-3.258,4.416-8.4,6.974-14.8,7.282-9.284.442-16.879-4.453-19.672-12.259l-5.928.283-.211-4.408,5.14-.246a12.869,12.869,0,0,1-.12-1.413,12.587,12.587,0,0,1-.015-1.419l-5.14.245-.212-4.405,5.929-.284c2.037-8.037,9.129-13.634,18.415-14.078,6.4-.307,11.758,1.751,15.421,5.784l-5.162,5.295a12.011,12.011,0,0,0-9.492-3.859,11.349,11.349,0,0,0-10.1,6.423l13.273-.633.209,4.407-14.585.7a19.968,19.968,0,0,0,.136,2.833l14.586-.7.21,4.408-13.273.635a11.353,11.353,0,0,0,10.671,5.431,11.89,11.89,0,0,0,9.077-4.8" transform="translate(-147.334 -90.07)"/>
                  </g>
                </g>
              </g>
              <path id="Path_89687" data-name="Path 89687" d="M338.137,125.951A44.027,44.027,0,1,1,309.57,70.709a43.978,43.978,0,0,1,28.568,55.241" transform="translate(40.635 11.055)" fill="#fecd8d"/>
              <path id="Path_89688" data-name="Path 89688" d="M326.7,121.312a33.551,33.551,0,1,1-21.77-42.1,33.512,33.512,0,0,1,21.77,42.1" transform="translate(42.089 12.506)" fill="#fecd8d"/>
              <path id="Path_89689" data-name="Path 89689" d="M326.749,121.353a3.186,3.186,0,0,1,.1-.536c.092-.381.216-.894.374-1.548q.129-.516.283-1.138c.085-.423.137-.893.216-1.4a24.187,24.187,0,0,0,.374-3.5,31.929,31.929,0,0,0-.861-9.576A33.308,33.308,0,0,0,293.5,78.039a34.465,34.465,0,0,0-4.7.491c-.784.145-1.557.365-2.343.545a16.594,16.594,0,0,0-2.328.7,30.329,30.329,0,0,0-8.83,4.562,32,32,0,0,0-7.306,7.25,32.762,32.762,0,0,0-6.372,19.932,32.04,32.04,0,0,0,1.746,10.146,30.342,30.342,0,0,0,4.549,8.84,30.565,30.565,0,0,0,6.63,6.852,33.455,33.455,0,0,0,16.17,6.7,33.484,33.484,0,0,0,26.176-8,31.92,31.92,0,0,0,6.254-7.3,24.539,24.539,0,0,0,1.727-3.07c.228-.457.457-.871.634-1.263.156-.4.3-.763.428-1.091l.593-1.478a3.108,3.108,0,0,1,.225-.5,3.1,3.1,0,0,1-.157.52c-.131.372-.307.87-.531,1.507q-.18.5-.4,1.109c-.167.4-.388.82-.608,1.285a23.715,23.715,0,0,1-1.682,3.123,31.638,31.638,0,0,1-6.226,7.451,33.774,33.774,0,0,1-26.509,8.284,33.968,33.968,0,0,1-16.493-6.76,31.182,31.182,0,0,1-6.779-6.973,30.97,30.97,0,0,1-4.657-9.013,32.642,32.642,0,0,1-1.794-10.359,33.406,33.406,0,0,1,6.507-20.354,32.646,32.646,0,0,1,7.467-7.4,30.952,30.952,0,0,1,9.018-4.64,17.066,17.066,0,0,1,2.377-.711c.8-.182,1.592-.4,2.392-.549a34.908,34.908,0,0,1,4.8-.489,33.957,33.957,0,0,1,17.356,4.055,33.767,33.767,0,0,1,16.794,22.12,31.682,31.682,0,0,1,.753,9.683,23.6,23.6,0,0,1-.441,3.521c-.091.505-.154.977-.251,1.4q-.174.622-.318,1.134c-.187.649-.333,1.158-.441,1.535a3.2,3.2,0,0,1-.174.516" transform="translate(42.045 12.465)" fill="#263238"/>
              <g id="Group_130937" data-name="Group 130937" transform="translate(304.488 90.256)" opacity="0.3">
                <g id="Group_130936" data-name="Group 130936">
                  <g id="Group_130935" data-name="Group 130935" clip-path="url(#clip-path-11)">
                    <path id="Path_89690" data-name="Path 89690" d="M326.181,121.547c-.194-.055.12-1.5.391-4.11a35.83,35.83,0,0,0-.52-10.962,34.328,34.328,0,0,0-2.334-7.146,33.376,33.376,0,0,0-4.542-7.266,32.45,32.45,0,0,0-6.968-6.332,31.967,31.967,0,0,0-4.337-2.448,32.115,32.115,0,0,0-9.832-2.8,32.1,32.1,0,0,0-4.978-.208,32.479,32.479,0,0,0-9.265,1.707,33.382,33.382,0,0,0-7.7,3.781,34.456,34.456,0,0,0-5.758,4.841,35.877,35.877,0,0,0-6.228,9.037c-1.146,2.361-1.643,3.755-1.837,3.7-.144-.038.029-1.529.924-4.085a31.314,31.314,0,0,1,5.812-9.867,33.584,33.584,0,0,1,14.018-9.633,33.677,33.677,0,0,1,9.938-1.987,33.6,33.6,0,0,1,5.375.183,33.742,33.742,0,0,1,10.606,3.022,33.628,33.628,0,0,1,4.661,2.678A33.685,33.685,0,0,1,321,90.57a33.506,33.506,0,0,1,6.822,15.572,31.258,31.258,0,0,1-.273,11.447c-.588,2.643-1.228,4-1.371,3.958" transform="translate(-262.231 -77.73)"/>
                  </g>
                </g>
              </g>
              <g id="Group_130940" data-name="Group 130940" transform="translate(317.121 101.76)" opacity="0.3">
                <g id="Group_130939" data-name="Group 130939">
                  <g id="Group_130938" data-name="Group 130938" clip-path="url(#clip-path-12)">
                    <path id="Path_89691" data-name="Path 89691" d="M302.271,121.244l-4.239,3.529c-.747.245-1.369-.021-4.319-2.186-.716-.525-1.51-1.107-2.388-1.708a32.342,32.342,0,0,0,1.961-6.035,8.292,8.292,0,0,0,.146-1.514l5.1,1.372,1.946-7.235-9.147-2.46a15.1,15.1,0,0,1-.608-2.793,7.708,7.708,0,0,1,2.359-5.9c1.457-1.237,3.544-1.5,6.2-.787a6.168,6.168,0,0,1,4.018,2.753c1.543,2.685.582,6.458.572,6.5l-.247.946,7.2,2,.267-.953c.076-.271,1.834-6.721-1.268-12.175a13.416,13.416,0,0,0-8.6-6.3c-6.446-1.735-10.623.3-12.992,2.307a15.191,15.191,0,0,0-4.98,12.231l-2.755-.741-1.946,7.235,6.936,1.866a6.192,6.192,0,0,1,.437,2.243,23.658,23.658,0,0,1-1.333,4.115,10.265,10.265,0,0,0-10.987,4.82l-.5.856,6.436,3.78.513-.829c.684-1.111,2.049-2.121,4.66-.615a48.26,48.26,0,0,1,4.561,3.065,19.332,19.332,0,0,0,6.1,3.442,8.234,8.234,0,0,0,2.956.26,8.389,8.389,0,0,0,4.479-1.882l4.255-3.434Z" transform="translate(-273.111 -87.638)"/>
                  </g>
                </g>
              </g>
              <path id="Path_89692" data-name="Path 89692" d="M402.307,190.975a44.027,44.027,0,1,1-57.3-24.18,43.979,43.979,0,0,1,57.3,24.18" transform="translate(51.159 26.356)" fill="#fecd8d"/>
              <path id="Path_89693" data-name="Path 89693" d="M391.143,193.458a33.551,33.551,0,1,1-43.665-18.427,33.512,33.512,0,0,1,43.665,18.427" transform="translate(52.613 27.807)" fill="#fecd8d"/>
              <path id="Path_89694" data-name="Path 89694" d="M391.191,193.493a3.127,3.127,0,0,1-.262-.478c-.173-.353-.406-.826-.7-1.429l-.51-1.055c-.206-.38-.467-.775-.728-1.213a24.342,24.342,0,0,0-1.953-2.931,31.916,31.916,0,0,0-6.789-6.808,33.307,33.307,0,0,0-42.321,1.9,34.578,34.578,0,0,0-3.3,3.385c-.508.613-.964,1.277-1.454,1.918a16.962,16.962,0,0,0-1.34,2.028,30.379,30.379,0,0,0-3.868,9.157,32.031,32.031,0,0,0-.977,10.246,32.765,32.765,0,0,0,7.854,19.4,32.007,32.007,0,0,0,7.834,6.68,30.316,30.316,0,0,0,9.151,3.884,30.643,30.643,0,0,0,9.481,1.025,33.457,33.457,0,0,0,16.71-5.2,33.463,33.463,0,0,0,15-22.9,31.875,31.875,0,0,0,.136-9.612,24.225,24.225,0,0,0-.636-3.464c-.118-.5-.206-.963-.322-1.377l-.369-1.112c-.207-.641-.368-1.143-.489-1.516a3.114,3.114,0,0,1-.145-.526,3.076,3.076,0,0,1,.211.5c.138.369.323.865.557,1.5q.183.5.4,1.108c.128.415.226.879.355,1.376a23.625,23.625,0,0,1,.706,3.478,31.634,31.634,0,0,1-.019,9.709,33.768,33.768,0,0,1-15.074,23.327,33.969,33.969,0,0,1-17,5.355,31.236,31.236,0,0,1-9.67-1.022,31.039,31.039,0,0,1-9.347-3.948,32.656,32.656,0,0,1-8-6.814,33.394,33.394,0,0,1-8.021-19.806,32.666,32.666,0,0,1,1.008-10.462,30.964,30.964,0,0,1,3.963-9.336,17.178,17.178,0,0,1,1.371-2.067c.5-.654.967-1.328,1.489-1.952a34.927,34.927,0,0,1,3.372-3.445,33.97,33.97,0,0,1,15.933-7.986,33.759,33.759,0,0,1,27.058,6.257,31.628,31.628,0,0,1,6.773,6.96,23.685,23.685,0,0,1,1.913,2.988c.254.447.506.85.7,1.235q.266.59.483,1.076l.641,1.463a3.079,3.079,0,0,1,.2.506" transform="translate(52.565 27.772)" fill="#263238"/>
              <g id="Group_130943" data-name="Group 130943" transform="translate(379.125 200.454)" opacity="0.3">
                <g id="Group_130942" data-name="Group 130942">
                  <g id="Group_130941" data-name="Group 130941" clip-path="url(#clip-path-7)">
                    <path id="Path_89695" data-name="Path 89695" d="M391.031,193.87c-.184.082-.869-1.23-2.329-3.41a35.8,35.8,0,0,0-7.413-8.091,34.359,34.359,0,0,0-6.365-4,33.445,33.445,0,0,0-8.141-2.679,32.474,32.474,0,0,0-9.406-.408,31.932,31.932,0,0,0-4.9.893,32.185,32.185,0,0,0-9.35,4.136,32.046,32.046,0,0,0-3.958,3.026,32.4,32.4,0,0,0-6.029,7.239,33.424,33.424,0,0,0-3.5,7.83,34.438,34.438,0,0,0-1.327,7.4,35.855,35.855,0,0,0,.994,10.931c.629,2.548,1.139,3.937.954,4.016-.135.064-.956-1.194-1.9-3.731a31.288,31.288,0,0,1-1.847-11.3,33.585,33.585,0,0,1,4.612-16.372,31.921,31.921,0,0,1,2.818-4.1,32.258,32.258,0,0,1,3.549-3.786,33.5,33.5,0,0,1,4.247-3.3,33.747,33.747,0,0,1,10.084-4.462,33.79,33.79,0,0,1,5.3-.924,33.758,33.758,0,0,1,10.113.592,33.52,33.52,0,0,1,15.205,7.6,31.279,31.279,0,0,1,7.113,8.972c1.239,2.408,1.615,3.861,1.478,3.92" transform="translate(-326.51 -172.635)"/>
                  </g>
                </g>
              </g>
            </g>
          </g>
          <g id="Group_130961" data-name="Group 130961" transform="translate(-47.26 24.639)">
            <g id="Group_130960" data-name="Group 130960" clip-path="url(#clip-path-6)">
              <path id="Path_89709" data-name="Path 89709" d="M268.339,289.677,282.053,352.4,321.8,394.126l-27.931,64.441,11.1,17.909s59.816-66.628,58.173-83.059c-2.865-28.651-63.508-88.669-77.14-99.944-4.591-3.8-17.666-3.8-17.666-3.8" transform="translate(43.241 46.679)" fill="#ae7461"/>
              <path id="Path_89710" data-name="Path 89710" d="M335.255,371.6c-.021.16-1.4,0-3.595.187a22.433,22.433,0,0,0-14.92,7.527c-1.45,1.655-2.146,2.858-2.286,2.78a8.632,8.632,0,0,1,1.771-3.2,20.082,20.082,0,0,1,15.4-7.77,8.647,8.647,0,0,1,3.627.478" transform="translate(50.67 59.803)" fill="#6f4439"/>
              <path id="Path_89711" data-name="Path 89711" d="M288.4,298.029s11.817,34.947,12.155,54.571c.158,9.191-3.948,61.991-3.948,89.738l19.577,51.847H153.769l17.783-58.114L156.931,331.023,178.32,305.89Z" transform="translate(24.779 48.025)" fill="#455a64"/>
              <path id="Path_89712" data-name="Path 89712" d="M211.046,174.96c-6.414-6.188-21.114-4.229-24.331.33a11.29,11.29,0,0,0-14.425,5.872l-15.482,4.466c-2.639.763-5.4,1.594-7.342,3.539s-2.682,5.382-.843,7.423c-5.438,1.8-7.067,10.183-2.7,13.891a5.967,5.967,0,0,0,1.45,8.556,59.739,59.739,0,0,0-8.971,18.157c-.807,2.722-1.4,5.737-.24,8.329s4.774,4.192,6.961,2.383a6.986,6.986,0,0,0,.166,7.546c-2.653.239-3.175,4.4-1.221,6.211s4.931,1.82,7.585,1.583,5.524-.563,7.806.81a2.423,2.423,0,0,1-.757,1.743c-4.321,4.009-5.195,10.487-1.46,15.046.346.423.669.813.952,1.165,1.684,2.083,5.625,3.834,8.076,4.915,6.216,2.738,9.755,1.91,16.525,2.44-1.545,4.445,9.978,13.312,21.828,3.076,25.314,5.049,43.414,6.409,69.178,4.786,3.676-.231,8.061-1.019,9.474-4.421,3.032.595,6.159-1,8.217-3.3s3.258-5.229,4.419-8.092a16.045,16.045,0,0,0,10.577-15.184,19.832,19.832,0,0,0,6.539-14.565c6.065-2.292,8.948-10.544,5.629-16.114a70.2,70.2,0,0,0-9.069-21.184c4.155-1.188,5.367-6.974,3.376-10.808s-5.993-6.12-9.782-8.2c3.2.633,5.691-3.505,4.732-6.628s-3.955-5.123-6.86-6.617a59.48,59.48,0,0,0-13.439-4.967c-1.864-5.448-9.366-11.3-14.72-13.412-21.6-8.536-36.44-10.08-61.851,11.227" transform="translate(22.159 25.437)" fill="#263238"/>
              <path id="Path_89714" data-name="Path 89714" d="M264.241,207.561c-2.616-14.312-14.265-30.871-28.453-27.65l-43.52,16.653a8.515,8.515,0,0,0-6.549,9.47l12.9,95.944a26.547,26.547,0,0,0,52.783-5.519c-.493-6.622-.851-11.6-.845-11.566,0,0,18.059-5.24,19.029-29.728.483-12.178-2.439-31.7-5.346-47.6" transform="translate(29.914 28.926)" fill="#ae7461"/>
              <path id="Path_89715" data-name="Path 89715" d="M246.107,220.6a3.1,3.1,0,0,1-2.6,3.462,2.968,2.968,0,0,1-3.507-2.4,3.1,3.1,0,0,1,2.6-3.463,2.97,2.97,0,0,1,3.51,2.4" transform="translate(38.668 35.153)" fill="#263238"/>
              <path id="Path_89716" data-name="Path 89716" d="M250.6,212.589c-.335.447-2.874-1-6.19-.6-3.319.353-5.55,2.349-5.958,1.984-.2-.159.106-.93,1.073-1.828a8.519,8.519,0,0,1,4.711-2.085,8.184,8.184,0,0,1,4.987.981c1.112.662,1.544,1.348,1.377,1.55" transform="translate(38.416 33.84)" fill="#263238"/>
              <path id="Path_89717" data-name="Path 89717" d="M218.376,223.167a3.1,3.1,0,0,1-2.6,3.461,2.969,2.969,0,0,1-3.507-2.4,3.105,3.105,0,0,1,2.6-3.464,2.97,2.97,0,0,1,3.509,2.4" transform="translate(34.2 35.567)" fill="#263238"/>
              <path id="Path_89718" data-name="Path 89718" d="M223.523,216.044c-.336.447-2.879-1-6.192-.6-3.317.353-5.55,2.348-5.958,1.984-.2-.159.1-.93,1.075-1.828a8.5,8.5,0,0,1,4.71-2.086,8.186,8.186,0,0,1,4.987.981c1.11.662,1.544,1.348,1.378,1.55" transform="translate(34.052 34.397)" fill="#263238"/>
              <path id="Path_89719" data-name="Path 89719" d="M236.239,240.508c-.037-.187,1.982-.787,5.273-1.61.836-.187,1.617-.451,1.692-1.045a4.331,4.331,0,0,0-.863-2.444q-1.559-2.933-3.269-6.153c-4.566-8.77-7.978-16.023-7.623-16.2s4.344,6.782,8.909,15.552q1.658,3.248,3.169,6.2a4.934,4.934,0,0,1,.833,3.272,2.144,2.144,0,0,1-1.246,1.4,5.76,5.76,0,0,1-1.415.369c-3.341.581-5.425.842-5.46.655" transform="translate(37.292 34.331)" fill="#263238"/>
              <path id="Path_89720" data-name="Path 89720" d="M246.157,270.93a61.567,61.567,0,0,1-33.206-4.774s9.765,15.586,33.555,10.487Z" transform="translate(34.316 42.889)" fill="#6f4439"/>
              <path id="Path_89721" data-name="Path 89721" d="M237.572,243.934a8.219,8.219,0,0,0-7.142-2.768,5.349,5.349,0,0,0-4.082,2.891,4.9,4.9,0,0,0,6.327,6.65,12.191,12.191,0,0,0,4.526-3.6,3.814,3.814,0,0,0,.9-1.365,1.7,1.7,0,0,0-.33-1.666" transform="translate(36.403 38.849)" fill="#8b5041"/>
              <path id="Path_89722" data-name="Path 89722" d="M227.45,239.668c.535-.1.97,3.5,4.353,5.7s7.17,1.34,7.258,1.84c.077.219-.772.8-2.387,1.036a9.013,9.013,0,0,1-6.033-1.333,7.858,7.858,0,0,1-3.42-4.8c-.316-1.488-.02-2.429.229-2.437" transform="translate(36.593 38.62)" fill="#263238"/>
              <path id="Path_89723" data-name="Path 89723" d="M224.641,205.083c-.221.941-3.582.906-7.417,1.836-3.856.852-6.859,2.363-7.471,1.615-.276-.359.17-1.273,1.335-2.3a13.285,13.285,0,0,1,11.343-2.63c1.5.406,2.3,1.03,2.21,1.474" transform="translate(33.787 32.753)" fill="#263238"/>
              <path id="Path_89724" data-name="Path 89724" d="M250.119,203.559c-.495.822-2.872.311-5.623.6-2.762.193-5.015,1.108-5.644.383-.28-.355,0-1.153.93-1.987a8.185,8.185,0,0,1,9.078-.791c1.064.658,1.474,1.4,1.26,1.8" transform="translate(38.472 32.349)" fill="#263238"/>
              <path id="Path_89725" data-name="Path 89725" d="M272.963,219.469a16.626,16.626,0,0,0-4.763-10.093c-1.529-1.411-3.41-2.43-4.789-3.989-2.976-3.367-2.954-8.345-4.424-12.591A18.278,18.278,0,0,0,246.8,181.367c-4.646-1.283-9.756-.69-14.167-2.631-3.26-1.435-5.86-4.15-9.2-5.389-6.5-2.415-13.566,1.349-19.251,5.326-.833,4.806,2.455,8.673,5.621,12.384a16.92,16.92,0,0,0,12.9,5.851c3.784-.05,8.121-1.224,10.968,1.27,2.995,2.623,2.279,7.684,4.807,10.759,3.614,4.394,10.933,2.084,16.041,4.589,3.943,1.935,5.865,6.343,8.059,10.15s5.788,7.681,10.15,7.152a49.457,49.457,0,0,0,.227-11.358" transform="translate(32.882 27.811)" fill="#263238"/>
              <path id="Path_89726" data-name="Path 89726" d="M218.448,184.635a85.754,85.754,0,0,0-31.876,8.2c-2.97,1.418-6.021,3.166-7.558,6.075-1.353,2.558-1.314,5.607-1.069,8.489.77,9.028,5.22,19.82,9.279,27.92L199,241.243c8.538-2.694,3.446-17.4,2.473-24.89a17.8,17.8,0,0,0,9.221-16.438,19.706,19.706,0,0,0,7.752-15.279" transform="translate(28.653 29.753)" fill="#263238"/>
              <path id="Path_89727" data-name="Path 89727" d="M197.775,231.228c-.721-5.141-7.14-5.678-11.384-2.689-2.33,1.641-3.954,4.666-3.236,10.129,1.915,14.567,16.143,9.64,16.114,9.219-.018-.261-.65-10.639-1.494-16.659" transform="translate(29.486 36.533)" fill="#ae7461"/>
              <path id="Path_89728" data-name="Path 89728" d="M193.564,242.25c-.071-.038-.231.211-.634.465a2.559,2.559,0,0,1-1.891.288c-1.613-.362-3.23-2.636-3.646-5.252a8.455,8.455,0,0,1,.233-3.726,2.955,2.955,0,0,1,1.652-2.2,1.3,1.3,0,0,1,1.59.5c.248.381.194.684.275.7.045.031.28-.284.084-.871a1.628,1.628,0,0,0-.693-.838,1.933,1.933,0,0,0-1.451-.186,3.6,3.6,0,0,0-2.355,2.607,8.7,8.7,0,0,0-.346,4.175c.48,2.924,2.343,5.472,4.528,5.8a2.741,2.741,0,0,0,2.27-.691c.405-.419.439-.755.384-.774" transform="translate(30.016 37.235)" fill="#6f4439"/>
              <path id="Path_89730" data-name="Path 89730" d="M195.476,256.094a.876.876,0,0,1-.028.2,2.057,2.057,0,0,1-.156.571,3.4,3.4,0,0,1-1.585,1.644,9.021,9.021,0,0,1-3.562,1.021,12.226,12.226,0,0,1-2.36.02,8.642,8.642,0,0,1-2.618-.586l.17-.1a7.3,7.3,0,0,1-11.247,5.473l.245-.061a3.021,3.021,0,0,1-1.823,1.42,4.172,4.172,0,0,1-2.385-.023,3.835,3.835,0,0,1-2.019-1.407,5.115,5.115,0,0,1-.921-2.354,7.5,7.5,0,0,1,1.234-5,22.025,22.025,0,0,1,3.58-4.04l.051.335a5.168,5.168,0,0,1-2.577-3.3,7.53,7.53,0,0,1,.1-4.346,11.633,11.633,0,0,1,2.291-3.837,35.164,35.164,0,0,1,3.246-3.185l0,.331a5.5,5.5,0,0,1-1.754-4.138,7.942,7.942,0,0,1,1.333-4.467c1.7-2.536,4.34-4.067,6.768-5.505l-.1.26a9.739,9.739,0,0,1,9.669-12.768l-.207.267a8.4,8.4,0,0,1,1.454-7.264,8.281,8.281,0,0,1,5.957-3.492l-.17.2a8.237,8.237,0,0,1,2.851-6.623,8.059,8.059,0,0,1,5.99-2.14l-.157.156a8.076,8.076,0,0,1,.912-3.84,10.4,10.4,0,0,1,2.023-2.848,8.418,8.418,0,0,1,4.844-2.527l.546-.078c.177-.009.352,0,.519,0a7.619,7.619,0,0,1,.934.04,10.259,10.259,0,0,1,1.427.29l.842.289a1.589,1.589,0,0,1,.28.111,1.778,1.778,0,0,1-.294-.073l-.849-.25a10.875,10.875,0,0,0-1.418-.25,7.656,7.656,0,0,0-.921-.02c-.164,0-.334,0-.508.008l-.534.086a8.3,8.3,0,0,0-4.706,2.53,10.2,10.2,0,0,0-1.952,2.8,7.849,7.849,0,0,0-.856,3.7l.009.17-.166-.014a7.766,7.766,0,0,0-5.744,2.1,7.906,7.906,0,0,0-2.707,6.347l.015.185-.185.014a7.912,7.912,0,0,0-5.665,3.357,8.007,8.007,0,0,0-1.375,6.912l.085.28-.293-.012a9.314,9.314,0,0,0-9.229,12.215l.056.169-.154.091c-2.427,1.436-5,2.949-6.621,5.37a7.5,7.5,0,0,0-1.259,4.212,5.062,5.062,0,0,0,1.6,3.813l.19.164-.188.167c-2.25,2-4.507,4.107-5.423,6.829a7.107,7.107,0,0,0-.1,4.094,4.751,4.751,0,0,0,2.354,3.04l.266.131-.216.206a21.744,21.744,0,0,0-3.526,3.952,7.118,7.118,0,0,0-1.194,4.733,3.936,3.936,0,0,0,2.666,3.461,3.222,3.222,0,0,0,3.8-1.211l.088-.165.157.1a7.1,7.1,0,0,0,7.422.155,7.189,7.189,0,0,0,3.4-5.363l.015-.166.153.065a8.477,8.477,0,0,0,2.542.595,12.113,12.113,0,0,0,2.322.007,9,9,0,0,0,3.517-.945,3.391,3.391,0,0,0,1.586-1.558c.2-.469.217-.749.245-.742" transform="translate(26.932 29.661)" fill="#455a64"/>
              <path id="Path_89731" data-name="Path 89731" d="M142.787,245.5a5.01,5.01,0,0,1-.615-.843,7.537,7.537,0,0,1-.987-2.839,7.394,7.394,0,0,1,.862-4.678,7.787,7.787,0,0,1,5.053-3.76l-.11.184a10.057,10.057,0,0,1,.793-7.316A9.79,9.79,0,0,1,150.424,223a23.319,23.319,0,0,1,3.862-2.178,7.976,7.976,0,0,0,1.834-1.278,4.975,4.975,0,0,0,1.2-1.9c.548-1.45.635-3.123,1.346-4.693a8.917,8.917,0,0,1,8.587-5.071l-.233.266a11.753,11.753,0,0,1,12.012-14.237l-.226.26a10.32,10.32,0,0,1,15.3-10.793l-.235.041a14.121,14.121,0,0,1,4.883-3.494,21.162,21.162,0,0,1,5.162-1.59,24.613,24.613,0,0,1,8.718-.049,17.5,17.5,0,0,1,5.309,1.764,10.034,10.034,0,0,1,1.253.777c.276.187.409.295.409.295-.021.034-.577-.379-1.714-.972A18.092,18.092,0,0,0,212.6,178.5a24.709,24.709,0,0,0-8.626.133,21.011,21.011,0,0,0-5.074,1.6,13.806,13.806,0,0,0-4.742,3.428l-.1.117-.133-.077a9.92,9.92,0,0,0-14.684,10.389l.049.273-.275-.013a11.322,11.322,0,0,0-11.561,13.7l.063.29-.3-.024a8.5,8.5,0,0,0-8.166,4.808c-.678,1.469-.773,3.132-1.349,4.661a5.382,5.382,0,0,1-1.306,2.04,8.4,8.4,0,0,1-1.926,1.335,23.242,23.242,0,0,0-3.819,2.125,9.467,9.467,0,0,0-2.561,3.122,9.764,9.764,0,0,0-.819,7.076l.042.152-.152.033a7.557,7.557,0,0,0-4.914,3.588,7.263,7.263,0,0,0-.9,4.542,7.739,7.739,0,0,0,.9,2.818c.332.594.562.871.543.885" transform="translate(22.739 28.67)" fill="#455a64"/>
              <path id="Path_89732" data-name="Path 89732" d="M271.544,239.43a1.44,1.44,0,0,1-.144-1.2,2.851,2.851,0,0,1,.767-1.274,4.989,4.989,0,0,1,1.741-1.041,8.573,8.573,0,0,0,2.214-1.121,4.552,4.552,0,0,0,1.477-2.467,8.969,8.969,0,0,0,.124-3.377c-.141-1.2-.423-2.467-.524-3.836-.23-2.773.741-5.676,1.231-8.785a12.171,12.171,0,0,0-.153-4.825,5.882,5.882,0,0,0-2.953-3.922c-1.556-.8-3.414-.946-5.257-1.364a8.827,8.827,0,0,1-2.71-1.029,5.91,5.91,0,0,1-2.019-2.178,28.5,28.5,0,0,1-1.959-5.647,9.786,9.786,0,0,0-1.217-2.7,4.477,4.477,0,0,0-2.294-1.733,16.464,16.464,0,0,0-4.088-.258,6.38,6.38,0,0,1-2.088-.365,4.047,4.047,0,0,1-1.717-1.248,14.293,14.293,0,0,1-1.8-3.626,9.018,9.018,0,0,0-2.076-3.168,8.849,8.849,0,0,0-6.594-2.582,9.094,9.094,0,0,0-6.047,2.7l-.181.188-.125-.23a13.97,13.97,0,0,0-9.236-6.867,12.867,12.867,0,0,0-4.92-.066,11.746,11.746,0,0,0-3.939,1.412,10.314,10.314,0,0,0-3.987,4.24,9.981,9.981,0,0,0-.625,1.428c-.06.152-.108.273-.149.374a.531.531,0,0,1-.059.124.485.485,0,0,1,.03-.132c.033-.1.072-.229.121-.384a8.7,8.7,0,0,1,.577-1.463,10.243,10.243,0,0,1,3.978-4.379,11.857,11.857,0,0,1,4-1.486,13.064,13.064,0,0,1,5.032.026,14.268,14.268,0,0,1,9.509,6.991l-.307-.042a9.464,9.464,0,0,1,6.3-2.845,9.246,9.246,0,0,1,6.915,2.685,9.468,9.468,0,0,1,2.178,3.306,14.018,14.018,0,0,0,1.743,3.513,4.294,4.294,0,0,0,3.479,1.449,16.55,16.55,0,0,1,4.2.276,4.937,4.937,0,0,1,2.53,1.905,10.187,10.187,0,0,1,1.273,2.823,28.493,28.493,0,0,0,1.916,5.563,5.466,5.466,0,0,0,1.869,2.03,8.482,8.482,0,0,0,2.577.98c1.8.416,3.691.555,5.349,1.414A5.635,5.635,0,0,1,277.571,209a7.451,7.451,0,0,1,1.087,2.406,12.526,12.526,0,0,1,.139,4.98c-.518,3.158-1.489,6.012-1.281,8.709.086,1.336.358,2.6.489,3.825a9.129,9.129,0,0,1-.165,3.472,4.765,4.765,0,0,1-1.584,2.571,8.649,8.649,0,0,1-2.283,1.116,4.908,4.908,0,0,0-1.713.974,2.807,2.807,0,0,0-.773,1.2,1.8,1.8,0,0,0,.057,1.172" transform="translate(34.2 28.509)" fill="#455a64"/>
              <path id="Path_89733" data-name="Path 89733" d="M298.756,216.2a1.526,1.526,0,0,1-.171-.262c-.116-.2-.268-.459-.463-.791l-1.739-3.063c-.763-1.325-1.629-2.988-2.829-4.788a13.072,13.072,0,0,0-5.282-4.9c-1.231-.555-2.63-.879-4.046-1.39a9.2,9.2,0,0,1-2.084-1.023,5.054,5.054,0,0,1-1.633-1.8c-.8-1.468-.95-3.187-1.619-4.718a4.143,4.143,0,0,0-1.555-1.9,7.888,7.888,0,0,0-2.43-.917,15.08,15.08,0,0,1-2.66-.8,4.717,4.717,0,0,1-2.149-1.924c-1.008-1.714-1.166-3.717-1.665-5.584a7.074,7.074,0,0,0-1.167-2.614,3.669,3.669,0,0,0-2.434-1.358c-1.953-.26-3.972.562-6.139.381a5.166,5.166,0,0,1-2.924-1.287,13.289,13.289,0,0,1-2.005-2.385,27.881,27.881,0,0,0-1.79-2.406A5.67,5.67,0,0,0,249.685,171c-1.8-.675-3.748-.1-5.522.45a12.939,12.939,0,0,1-5.522.887,14.886,14.886,0,0,1-4.994-1.849,25.252,25.252,0,0,0-4.48-2.077,15.137,15.137,0,0,0-8.7.355,16.224,16.224,0,0,0-6.189,3.781,18.1,18.1,0,0,0-3.243,4.46,20.552,20.552,0,0,0-1.29,3.257c-.116.366-.208.654-.276.872a1.5,1.5,0,0,1-.11.294,1.72,1.72,0,0,1,.065-.3l.236-.887a18.81,18.81,0,0,1,1.22-3.309,17.942,17.942,0,0,1,3.222-4.559,16.41,16.41,0,0,1,6.264-3.9,15.405,15.405,0,0,1,8.906-.411,25.372,25.372,0,0,1,4.559,2.084,14.6,14.6,0,0,0,4.864,1.789,12.583,12.583,0,0,0,5.346-.887,18.431,18.431,0,0,1,2.812-.7,5.6,5.6,0,0,1,5.451,2.054,27.939,27.939,0,0,1,1.823,2.443,12.985,12.985,0,0,0,1.936,2.3,4.717,4.717,0,0,0,2.674,1.179c2.019.185,4.036-.642,6.159-.376a4.113,4.113,0,0,1,2.715,1.522,7.466,7.466,0,0,1,1.246,2.779c.5,1.915.67,3.887,1.607,5.476a4.294,4.294,0,0,0,1.96,1.763,14.816,14.816,0,0,0,2.585.785,8.234,8.234,0,0,1,2.55.978,4.545,4.545,0,0,1,1.694,2.076c.692,1.62.83,3.321,1.585,4.7a6.007,6.007,0,0,0,3.51,2.678c1.386.51,2.794.845,4.058,1.426a13.261,13.261,0,0,1,5.36,5.043c1.19,1.832,2.033,3.507,2.773,4.844l1.666,3.1c.178.34.318.609.424.812a1.686,1.686,0,0,1,.131.284" transform="translate(33.736 27.003)" fill="#455a64"/>
              <path id="Path_89734" data-name="Path 89734" d="M275.311,197.259a1.126,1.126,0,0,1,.264-.068,1.682,1.682,0,0,1,.792.117,3.15,3.15,0,0,1,1.645,2.485,7.792,7.792,0,0,1-.153,2.212,9,9,0,0,0-.193,2.56,5.645,5.645,0,0,0,1.227,2.625c.632.843,1.418,1.655,2.078,2.661a4.216,4.216,0,0,1,.634,3.658c-.376,1.278-1.2,2.387-1.556,3.687a5.469,5.469,0,0,0,.693,4c.668,1.3,1.576,2.532,2.243,3.978a6.606,6.606,0,0,1,.643,2.341,5.983,5.983,0,0,1-.377,2.463,28.567,28.567,0,0,1-2.478,4.375,6.746,6.746,0,0,0-1.208,4.746c.311,1.677,1.375,3.154,2.131,4.808a7.616,7.616,0,0,1,.739,2.65,6.074,6.074,0,0,1-.493,2.68,22.478,22.478,0,0,1-2.854,4.369,11.9,11.9,0,0,0-2.255,4.329,35.875,35.875,0,0,1-1.186,4.666,5.311,5.311,0,0,1-1.35,1.959,6.813,6.813,0,0,1-2,1.15,17.856,17.856,0,0,0-1.976.871,7.293,7.293,0,0,0-1.607,1.275,14.933,14.933,0,0,0-2.168,3.306c-.592,1.137-1.138,2.256-1.769,3.267a10.063,10.063,0,0,1-4.823,4.122,10.809,10.809,0,0,1-4.746.806,9.565,9.565,0,0,1-2.978-.64,7.5,7.5,0,0,1-.957-.461,11.131,11.131,0,0,0,3.943.928,10.775,10.775,0,0,0,4.641-.863,9.835,9.835,0,0,0,4.652-4.059c.61-1,1.143-2.108,1.73-3.259a15.173,15.173,0,0,1,2.2-3.4,7.631,7.631,0,0,1,1.689-1.356,18.73,18.73,0,0,1,2.014-.9,6.411,6.411,0,0,0,1.88-1.086,4.933,4.933,0,0,0,1.238-1.817,36.292,36.292,0,0,0,1.153-4.615,12.319,12.319,0,0,1,2.315-4.481,22.168,22.168,0,0,0,2.8-4.279,5.638,5.638,0,0,0,.46-2.485,7.186,7.186,0,0,0-.7-2.49c-.727-1.608-1.818-3.1-2.161-4.913a5.591,5.591,0,0,1,.166-2.68,10.73,10.73,0,0,1,1.1-2.371,28.471,28.471,0,0,0,2.453-4.3,5.571,5.571,0,0,0,.36-2.287,6.2,6.2,0,0,0-.6-2.2c-.635-1.395-1.536-2.633-2.218-3.969a5.841,5.841,0,0,1-.7-4.273c.392-1.39,1.229-2.487,1.584-3.689a3.879,3.879,0,0,0-.57-3.388c-.626-.975-1.4-1.8-2.04-2.66a5.883,5.883,0,0,1-1.248-2.767,9.15,9.15,0,0,1,.231-2.626,7.672,7.672,0,0,0,.191-2.153,3.075,3.075,0,0,0-1.51-2.426,1.848,1.848,0,0,0-1.018-.132" transform="translate(40.492 31.775)" fill="#455a64"/>
              <path id="Path_89735" data-name="Path 89735" d="M143.982,246.823a5.458,5.458,0,0,1-1.168-.029,7.986,7.986,0,0,1-3.179-1.095,7.817,7.817,0,0,1-3.4-4.084,8.242,8.242,0,0,1,.682-7,20.745,20.745,0,0,1,2.7-3.222,9.887,9.887,0,0,0,2.48-3.681,6.47,6.47,0,0,0-.571-4.632c-.677-1.527-1.646-2.993-2.313-4.691a14.391,14.391,0,0,1,9.451-19.073l-.107.353a7.306,7.306,0,0,1-1.5-3.1,9.184,9.184,0,0,1-.04-3.5,10.094,10.094,0,0,1,1.228-3.325,11.979,11.979,0,0,1,2.291-2.757,22.731,22.731,0,0,1,9.337-4.606,34.42,34.42,0,0,1,9.807-1.157l-.22.224a10.424,10.424,0,0,1,5.209-9.434,10.624,10.624,0,0,1,5.066-1.372,17.168,17.168,0,0,1,4.894.91,9.616,9.616,0,0,0,2.294.353,5.92,5.92,0,0,0,2.186-.395,17.978,17.978,0,0,0,3.731-2.172,15.791,15.791,0,0,1,3.573-1.967,12.794,12.794,0,0,1,3.66-.77,12.348,12.348,0,0,1,6.2,1.205,12.715,12.715,0,0,1,3.789,2.824,12.142,12.142,0,0,1,1.725,2.4,6.56,6.56,0,0,1,.435.924c-.019.009-.159-.312-.5-.888a13.01,13.01,0,0,0-1.766-2.341A12.782,12.782,0,0,0,206.176,168a12.188,12.188,0,0,0-6.09-1.124,12.518,12.518,0,0,0-3.574.778,15.511,15.511,0,0,0-3.494,1.955,18.27,18.27,0,0,1-3.793,2.231,6.3,6.3,0,0,1-2.309.427,9.984,9.984,0,0,1-2.383-.354,16.885,16.885,0,0,0-4.8-.88,10.239,10.239,0,0,0-4.873,1.337,10.017,10.017,0,0,0-4.979,9.065l.011.23-.231-.006a34.033,34.033,0,0,0-9.68,1.154,22.341,22.341,0,0,0-9.152,4.51,11.54,11.54,0,0,0-2.206,2.653,9.65,9.65,0,0,0-1.176,3.177,8.8,8.8,0,0,0,.035,3.326,6.858,6.858,0,0,0,1.408,2.912l.216.26-.323.093a14,14,0,0,0-9.213,18.513c.638,1.648,1.6,3.118,2.286,4.682a6.812,6.812,0,0,1,.563,4.879,10.157,10.157,0,0,1-2.575,3.8,20.509,20.509,0,0,0-2.687,3.156,8.019,8.019,0,0,0-.714,6.772,7.693,7.693,0,0,0,3.271,4.026,8.194,8.194,0,0,0,3.11,1.148c.755.107,1.158.084,1.158.108" transform="translate(21.875 26.843)" fill="#263238"/>
              <path id="Path_89736" data-name="Path 89736" d="M287.424,193.566a1.272,1.272,0,0,1-.063-.276c-.035-.207-.081-.476-.139-.816-.124-.745-.3-1.8-.526-3.137-.244-1.358-.561-3.019-1.073-4.908a28.409,28.409,0,0,0-2.4-6.17,18.807,18.807,0,0,0-5.136-6.065,13.87,13.87,0,0,0-3.925-2.037,39.978,39.978,0,0,0-4.646-.975,13.321,13.321,0,0,1-4.767-1.7,21,21,0,0,1-4-3.434c-1.235-1.285-2.422-2.651-3.777-3.865a14.97,14.97,0,0,0-4.633-2.918,26.484,26.484,0,0,0-10.737-1.468,69.031,69.031,0,0,0-10.144,1.166,52.269,52.269,0,0,0-16.2,5.841,37.066,37.066,0,0,0-9.066,7.258c-.45.521-.87.968-1.2,1.382l-.811,1.072c-.21.273-.377.489-.506.655a1.461,1.461,0,0,1-.185.215,1.2,1.2,0,0,1,.147-.24l.471-.681.778-1.1c.324-.424.734-.882,1.177-1.415a36.173,36.173,0,0,1,9.037-7.416,51.966,51.966,0,0,1,16.282-5.972,68.647,68.647,0,0,1,10.208-1.2,26.79,26.79,0,0,1,10.919,1.491,15.377,15.377,0,0,1,4.762,3c1.382,1.24,2.572,2.615,3.8,3.892a20.629,20.629,0,0,0,3.912,3.373,12.893,12.893,0,0,0,4.62,1.664,39.87,39.87,0,0,1,4.689,1.006,14.231,14.231,0,0,1,4.025,2.113,19.034,19.034,0,0,1,5.193,6.212,28.158,28.158,0,0,1,2.364,6.256c.493,1.907.786,3.578,1,4.943s.354,2.431.444,3.154l.1.823a1.322,1.322,0,0,1,.018.282" transform="translate(32.79 25.029)" fill="#263238"/>
              <path id="Path_89737" data-name="Path 89737" d="M304.466,303.49s-3.572-13.133-4.743-13.133L262.988,281.1S250.41,294.96,235.58,293.4,208.7,279.71,208.7,279.71l-40.957,9.783h0c-2.968.595-8.381,2.469-13.555,9.863-5.774,8.25-36.173,51.2-36.173,51.2l47.147,22.58L306.318,350.8Z" transform="translate(19.017 45.073)" fill="#455a64"/>
              <path id="Path_89738" data-name="Path 89738" d="M274.506,288.88s12.512,1.28,27.9,17.528c7.983,8.431,30.092,31.722,30.092,31.722l-41.842,39.093L274.506,352.3l.331-42.794Z" transform="translate(44.235 46.551)" fill="#455a64"/>
              <path id="Path_89739" data-name="Path 89739" d="M118.177,307.6c-.837-.674,2.829-14.07,2.829-14.07s-9.708-15.039-9.964-19.89,3.832-14.8,3.832-14.8l27.851-6.793s8.947,15.768,10.734,21.348-3.069,24.5-3.069,24.5l-4.718,9.7s-14.226,10.673-27.495,0" transform="translate(17.892 40.616)" fill="#6f4439"/>
              <path id="Path_89740" data-name="Path 89740" d="M111.8,281.039a56.946,56.946,0,0,1-2.933-5.872c-1.764-3.97-3.929-7.863,0-10.083a5.365,5.365,0,0,1,4.2-.628s-.6-3.342,1.5-4.6a4.742,4.742,0,0,1,4.129-.341s-.663-4.713,2.364-6.713a7.679,7.679,0,0,1,7.713-.209s-2.4-20.632-2.606-21.726c-.763-4.012.8-7.561,5.006-6.572,1.541.363,2.4,1.905,4.2,8.624s4.711,18.187,4.711,18.187,4.891,8.069,7.2,12.445,6.877,14.341,7.258,16.981c.984,6.826-3.227,15.864-3.227,15.864l-29.606,1.631S112.927,283,111.8,281.039" transform="translate(17.187 36.117)" fill="#ae7461"/>
              <path id="Path_89741" data-name="Path 89741" d="M113.34,259.625a23.443,23.443,0,0,1,2.291,3.036c.7,1.01,1.486,2.147,2.342,3.381a14.251,14.251,0,0,1,1.273,2.113,4.1,4.1,0,0,1,.348,2.68,2.744,2.744,0,0,1-1.869,2.082,3.876,3.876,0,0,1-2.652-.311,12.01,12.01,0,0,1-1.977-1.16c-.583-.4-1.116-.778-1.6-1.134-.959-.713-1.707-1.323-2.208-1.76s-.758-.7-.731-.731c.06-.067,1.232.823,3.2,2.155a26.281,26.281,0,0,0,3.545,2.134,3.32,3.32,0,0,0,2.232.255,2.159,2.159,0,0,0,1.449-1.659,3.6,3.6,0,0,0-.3-2.327,14.741,14.741,0,0,0-1.195-2.046c-.815-1.26-1.564-2.419-2.229-3.45a22.98,22.98,0,0,1-1.92-3.259" transform="translate(17.493 41.837)" fill="#6f4439"/>
              <path id="Path_89742" data-name="Path 89742" d="M133.606,262.913c-.16.007-.308-2.013.311-4.417a9.318,9.318,0,0,1,1.845-4.065c.165.076-.658,1.874-1.241,4.2-.6,2.326-.732,4.282-.915,4.279" transform="translate(21.507 40.999)" fill="#6f4439"/>
              <path id="Path_89743" data-name="Path 89743" d="M147.79,267.7a20,20,0,0,0-9.9-4.907,39.27,39.27,0,0,0-11.277-.412c-3.012.261-6.45,1-7.823,3.558-1.412,2.634.287,6.027,2.959,7.543s5.976,1.574,9.076,1.307,6.225-.816,9.3-.361" transform="translate(19.06 42.246)" fill="#ae7461"/>
              <path id="Path_89744" data-name="Path 89744" d="M140.162,274.463c-.008.05-.835-.075-2.336-.058-1.5,0-3.659.261-6.344.571a28.243,28.243,0,0,1-4.445.179,12.591,12.591,0,0,1-4.987-1.189,7.4,7.4,0,0,1-3.705-4.091,5.272,5.272,0,0,1-.21-2.926,4.956,4.956,0,0,1,1.634-2.6,10.952,10.952,0,0,1,5.691-2.1,50.859,50.859,0,0,1,5.625-.323,29.892,29.892,0,0,1,9.412,1.353,19.2,19.2,0,0,1,5.648,2.893,13.1,13.1,0,0,1,1.3,1.114c.273.277.406.43.391.445-.041.041-.619-.54-1.834-1.375a20.494,20.494,0,0,0-5.642-2.681,30.437,30.437,0,0,0-9.269-1.206,52.469,52.469,0,0,0-5.545.352,10.426,10.426,0,0,0-5.356,1.962,4.39,4.39,0,0,0-1.447,2.289,4.733,4.733,0,0,0,.185,2.616,6.86,6.86,0,0,0,3.4,3.793,12.168,12.168,0,0,0,4.751,1.181,29.055,29.055,0,0,0,4.369-.1,52.164,52.164,0,0,1,6.39-.387,15.486,15.486,0,0,1,1.741.153,2.285,2.285,0,0,1,.593.135" transform="translate(19.018 42.208)" fill="#6f4439"/>
              <path id="Path_89745" data-name="Path 89745" d="M112.862,260.117a163.3,163.3,0,0,1,8.49,14.192,8.882,8.882,0,0,0,2.974,3.671c1.123.657,3.91-.534,5.158-.941l-8.553-18.476" transform="translate(18.187 41.666)" fill="#ae7461"/>
              <path id="Path_89746" data-name="Path 89746" d="M120.93,258.563a8.434,8.434,0,0,1,.759,1.377c.49,1,1.125,2.3,1.894,3.869,1.585,3.294,3.757,7.9,6.182,13.113l.133.287-.316.108c-.924.313-1.916.708-2.985.963a6.51,6.51,0,0,1-1.307.186,2.448,2.448,0,0,1-.7-.071,1.95,1.95,0,0,1-.644-.3,6.485,6.485,0,0,1-1.722-1.75c-.88-1.31-1.5-2.625-2.195-3.846-1.345-2.457-2.575-4.657-3.644-6.487s-1.965-3.293-2.589-4.3a11.578,11.578,0,0,1-.934-1.592,9.926,9.926,0,0,1,1.138,1.47c.69.974,1.65,2.407,2.767,4.218s2.394,3.993,3.768,6.44c.7,1.207,1.357,2.55,2.195,3.778a5.943,5.943,0,0,0,1.568,1.587,2.7,2.7,0,0,0,2.152.1c1.012-.24,1.974-.621,2.935-.944l-.182.395c-2.406-5.222-4.51-9.856-5.995-13.191l-1.721-3.942a8.256,8.256,0,0,1-.555-1.462" transform="translate(18.186 41.665)" fill="#6f4439"/>
              <path id="Path_89747" data-name="Path 89747" d="M117.825,254.332l8.248,19.636a13.243,13.243,0,0,0,2.218,3.939,4.917,4.917,0,0,0,4.152,1.718c2.148-.3,3.553-2.468,3.662-4.528s-.75-4.04-1.543-5.96a119.532,119.532,0,0,1-5.915-18.376" transform="translate(18.987 40.408)" fill="#ae7461"/>
              <path id="Path_89748" data-name="Path 89748" d="M128.647,250.76a2.469,2.469,0,0,1,.208.6c.13.46.291,1.034.489,1.736.426,1.506,1.047,3.684,1.919,6.344s1.994,5.8,3.414,9.229a18.344,18.344,0,0,1,1.728,5.618,5.816,5.816,0,0,1-.624,3.119,4.707,4.707,0,0,1-2.479,2.3,4.363,4.363,0,0,1-3.465-.266,6.375,6.375,0,0,1-2.434-2.177,33.7,33.7,0,0,1-2.5-5.337c-1.41-3.417-2.682-6.507-3.763-9.13l-2.487-6.174-.647-1.69a2.425,2.425,0,0,1-.186-.6,2.494,2.494,0,0,1,.3.56l.756,1.649c.664,1.519,1.568,3.586,2.671,6.1,1.116,2.61,2.431,5.683,3.886,9.084a34.518,34.518,0,0,0,2.472,5.219,5.79,5.79,0,0,0,2.21,1.974,3.723,3.723,0,0,0,2.954.238,4.12,4.12,0,0,0,2.15-2.015,5.257,5.257,0,0,0,.57-2.826,18.132,18.132,0,0,0-1.652-5.454c-1.4-3.452-2.483-6.622-3.3-9.307s-1.378-4.885-1.732-6.411c-.174-.763-.3-1.357-.376-1.763a2.417,2.417,0,0,1-.086-.625" transform="translate(18.986 40.408)" fill="#6f4439"/>
              <path id="Path_89749" data-name="Path 89749" d="M121.121,293.976s-18.887,52.85-19.633,55.445l37.933,12.409,12.821-71.4Z" transform="translate(16.354 46.801)" fill="#ae7461"/>
              <path id="Path_89750" data-name="Path 89750" d="M135.4,287.425a3.743,3.743,0,0,1-1.778-.222,9.963,9.963,0,0,1-3.756-2.051,9.333,9.333,0,0,1-2.478-3.376,3.239,3.239,0,0,1-.386-1.662c.18-.07.835,2.515,3.284,4.6,2.4,2.134,5.172,2.53,5.114,2.706" transform="translate(20.462 45.138)" fill="#6f4439"/>
              <path id="Path_89751" data-name="Path 89751" d="M102.292,341.235s-6.209,15.411-5.774,25.837,5.774,30.166,21.046,30.075c10.982-.065,21.979-4.415,33.735-17.881,6.53-7.48,14.773-17.266,14.773-17.266l-34.788-16.66Z" transform="translate(15.55 54.987)" fill="#ae7461"/>
              <path id="Path_89752" data-name="Path 89752" d="M127.342,387.612a4.533,4.533,0,0,1,.3-.792c.246-.56.568-1.294.968-2.209.442-.947.788-2.191,1.3-3.584.528-1.391.965-3.032,1.5-4.827,2.082-7.2,4.352-17.319,6.5-28.563s3.817-21.481,5.01-28.89c.583-3.656,1.058-6.637,1.4-8.777.164-.988.294-1.781.394-2.385a4.478,4.478,0,0,1,.175-.827,4.273,4.273,0,0,1-.054.843c-.071.608-.165,1.406-.281,2.4-.263,2.083-.667,5.1-1.21,8.81-1.086,7.428-2.7,17.677-4.84,28.939a292.528,292.528,0,0,1-6.679,28.571c-.563,1.793-1.029,3.429-1.59,4.818s-.925,2.623-1.4,3.564c-.447.9-.8,1.622-1.076,2.172a4.293,4.293,0,0,1-.411.735" transform="translate(20.52 49.432)" fill="#6f4439"/>
              <path id="Path_89753" data-name="Path 89753" d="M153.77,317.71a5.076,5.076,0,0,1,.287.862l.708,2.5c.576,2.185,1.355,5.361,2.231,9.3,1.754,7.885,3.869,18.844,5.939,30.991,2.042,12.156,3.652,23.2,4.59,31.224.47,4.011.779,7.267.954,9.518.064,1.082.116,1.946.154,2.6a5.037,5.037,0,0,1,.013.908,5.141,5.141,0,0,1-.134-.9q-.1-.971-.268-2.584c-.247-2.243-.62-5.486-1.145-9.487-1.045-8-2.721-19.028-4.762-31.176-2.068-12.14-4.115-23.1-5.76-31-.821-3.951-1.536-7.136-2.041-9.337l-.6-2.529a5.082,5.082,0,0,1-.17-.893" transform="translate(24.778 51.197)" fill="#263238"/>
              <path id="Path_89754" data-name="Path 89754" d="M279.105,379.436a2.847,2.847,0,0,1,.012-.677c.039-.507.088-1.146.149-1.93.151-1.757.355-4.158.606-7.089a214.745,214.745,0,0,0,.845-23.417,122.149,122.149,0,0,0-1.085-12.84c-.33-1.953-.594-3.818-1-5.534-.19-.859-.342-1.7-.541-2.491l-.6-2.275c-.347-1.458-.8-2.737-1.152-3.876s-.691-2.105-.992-2.888c-.267-.739-.484-1.341-.657-1.82a2.887,2.887,0,0,1-.192-.65,2.856,2.856,0,0,1,.3.6c.2.468.453,1.058.764,1.781.336.772.723,1.727,1.093,2.864s.867,2.41,1.244,3.869q.3,1.092.638,2.277c.213.8.377,1.635.578,2.5.425,1.722.71,3.595,1.055,5.557a114.35,114.35,0,0,1,1.14,12.9,186.219,186.219,0,0,1-1.024,23.474c-.3,2.991-.582,5.407-.8,7.075-.107.779-.194,1.414-.263,1.918a2.789,2.789,0,0,1-.133.664" transform="translate(44.234 50.591)" fill="#263238"/>
              <path id="Path_89755" data-name="Path 89755" d="M265.6,422.587s-1.938-5.105,2.307-5.511c1.8-.171,4.47-.184,6.946-.144a8.831,8.831,0,0,1,8.26,6.133l1.775,5.534,5.863,5.863h6.469l10.118,21.51s-8.7,7.343-13.757,4.944-5.863-1.994-5.863-1.994-20.013,11.725-21.429,11.118-3.839-2.761,0-6.064,17.184-12.535,17.184-12.535L258,460.917s-4.245-.982-1.82-4.217,23.854-13.218,23.854-13.218l-1.617-1.742s-20.62,7.682-22.034,6.672-4.733-3.033-.951-5.661,22.379-10.108,22.379-10.108l-2.83-6.671-2.831-1.415s-5.96-.123-6.552-1.969" transform="translate(40.879 67.183)" fill="#ae7461"/>
              <path id="Path_89756" data-name="Path 89756" d="M297.749,439.866c-.288.067-.862-2.419-2.923-4.613-2.016-2.238-4.445-3.016-4.353-3.3,0-.265,2.833.144,5.088,2.623,2.28,2.452,2.452,5.311,2.188,5.289" transform="translate(46.807 69.595)" fill="#6f4439"/>
              <path id="Path_89757" data-name="Path 89757" d="M283.726,434.071c-.228.18-1.685-1.869-4.411-2.813-2.717-.971-5.135-.285-5.2-.567-.042-.121.508-.467,1.523-.677a7.739,7.739,0,0,1,7.324,2.576c.659.8.872,1.414.764,1.482" transform="translate(44.171 69.271)" fill="#6f4439"/>
              <path id="Path_89758" data-name="Path 89758" d="M283.733,440.375c-.163.239-1.775-.719-3.963-.612-2.192.049-3.733,1.119-3.912.892-.223-.157,1.3-1.811,3.876-1.888,2.576-.107,4.212,1.435,4,1.608" transform="translate(44.449 70.703)" fill="#6f4439"/>
              <path id="Path_89759" data-name="Path 89759" d="M286.914,446.464c-.083.28-2.009-.145-4.338.2-2.336.31-4.069,1.253-4.225,1.007-.173-.2,1.489-1.64,4.085-1.995,2.593-.377,4.59.549,4.478.785" transform="translate(44.852 71.804)" fill="#6f4439"/>
              <g id="Group_130959" data-name="Group 130959" transform="translate(319.58 366.588)" opacity="0.3">
                <g id="Group_130958" data-name="Group 130958">
                  <g id="Group_130957" data-name="Group 130957" clip-path="url(#clip-path-15)">
                    <path id="Path_89764" data-name="Path 89764" d="M275.229,315.713v.476c5.221,11.79,5.44,29.552,5.5,42.861,2.424-6.493,4.518-15.328,4.611-22.258s-4.214-17.442-10.113-21.079" transform="translate(-275.229 -315.713)"/>
                  </g>
                </g>
              </g>
              <g id="Group_2" data-name="Group 2" transform="translate(230.354 376.285)" style="mix-blend-mode: normal;isolation: isolate">
                <g id="Group_1" data-name="Group 1" transform="translate(0 0.071)">
                  <path id="Path_1" data-name="Path 1" d="M60.055,18.334,51.219,2.871H66.682Z" transform="translate(-33.547 -2.871)" fill="#f58220"/>
                  <path id="Path_2" data-name="Path 2" d="M82.406,2.871,75.779,18.334H91.242Z" transform="translate(-49.271 -2.871)" fill="#ea1c2d"/>
                  <path id="Path_3" data-name="Path 3" d="M35.5,2.871,26.659,18.334H44.331Z" transform="translate(-17.823 -2.871)" fill="#ffd200"/>
                  <path id="Path_4" data-name="Path 4" d="M35.5,58.43,26.659,45.176H44.331Z" transform="translate(-17.823 -29.713)" fill="#c1d52f"/>
                  <path id="Path_5" data-name="Path 5" d="M82.406,58.43,75.779,45.176H91.242Z" transform="translate(-49.271 -29.713)" fill="#ac1e2d"/>
                  <path id="Path_6" data-name="Path 6" d="M10.936,45.176,2.1,58.43H19.772Z" transform="translate(-2.1 -29.713)" fill="#00a94f"/>
                  <path id="Path_7" data-name="Path 7" d="M108.174,45.176,99.338,58.43H117.01Z" transform="translate(-66.203 -29.713)" fill="#c9187e"/>
                  <path id="Path_8" data-name="Path 8" d="M10.936,101.86,2.1,86.4H19.772Z" transform="translate(-2.1 -57.68)" fill="#008445"/>
                  <path id="Path_9" data-name="Path 9" d="M108.174,101.86,99.338,86.4H117.01Z" transform="translate(-66.203 -57.68)" fill="#873795"/>
                  <path id="Path_10" data-name="Path 10" d="M60.055,86.4,51.219,101.86H66.682Z" transform="translate(-33.547 -57.68)" fill="#f5f5f5"/>
                  <path id="Path_11" data-name="Path 11" d="M132.734,86.4,123.9,101.86H141.57Z" transform="translate(-81.927 -57.68)" fill="#f99d25"/>
                  <path id="Path_18" data-name="Path 18" d="M148.456,86.4l8.836,15.463h0L163.919,86.4Z" transform="translate(-97.649 -57.68)" fill="#e32726"/>
                </g>
              </g>
              <g id="Group_134587" data-name="Group 134587" transform="translate(241.009 404.268)" opacity="0.3">
                <g id="Group_130958-2" data-name="Group 130958">
                  <g id="Group_134588" data-name="Group 134588">
                    <path id="Path_89764-2" data-name="Path 89764" d="M272.142,306s16.53,68.121,31.027,64.552c12.894-11.983-16.489-22.49,1.5-35.33,8.834-6.3-6.842-2.026-16.638-6.45-9.661-4.364-8.346-16.174-13.217-19.5" transform="matrix(0.454, -0.891, 0.891, 0.454, -419.021, 124.036)"/>
                  </g>
                </g>
              </g>
            </g>
          </g>
        </g>
      </g>
    </g>
    <g id="rupee" transform="translate(397.402 1547)">
      <path id="Path_99375" data-name="Path 99375" d="M123.672,0H93.525V5.989h10.631a9,9,0,0,1,8.47,5.989h-19.1v5.989h19.1a9,9,0,0,1-8.47,5.989H93.525v5.989L111.078,47.5l4.235-4.235L102,29.947h2.161a15,15,0,0,0,14.672-11.979h4.843V11.979h-4.843a14.911,14.911,0,0,0-2.7-5.989h7.544Z" fill="#b08e62"/>
    </g>
  </g>
</svg>
